<?xml version="1.0" standalone="no"?><!DOCTYPE svg PUBLIC "-//W3C//DTD SVG 1.1//EN" "http://www.w3.org/Graphics/SVG/1.1/DTD/svg11.dtd"><svg t="1657262501491" class="icon" viewBox="0 0 1024 1024" version="1.1" xmlns="http://www.w3.org/2000/svg" p-id="8207" xmlns:xlink="http://www.w3.org/1999/xlink" width="200" height="200"><defs><style type="text/css">@font-face { font-family: feedback-iconfont; src: url("//at.alicdn.com/t/font_1031158_u69w8yhxdu.woff2?t=1630033759944") format("woff2"), url("//at.alicdn.com/t/font_1031158_u69w8yhxdu.woff?t=1630033759944") format("woff"), url("//at.alicdn.com/t/font_1031158_u69w8yhxdu.ttf?t=1630033759944") format("truetype"); }
</style></defs><path d="M512 921.6a409.6 409.6 0 1 0 0-819.2 409.6 409.6 0 0 0 0 819.2z m0-92.16a317.44 317.44 0 1 1 0-634.88 317.44 317.44 0 0 1 0 634.88z" fill="#888888" p-id="8208"></path><path d="M302.08 665.6h109.4144c67.584 0 118.9888-28.6208 118.9888-90.368 0-41.472-24.4736-64.6656-57.6512-72.5504v-2.048c26.112-9.1648 41.8816-38.1952 41.8816-66.3552 0-57.2416-48.128-75.8784-111.104-75.8784H302.0288v307.2z m61.3376-182.016V405.6576h36.4544c36.864 0 55.1424 10.752 55.1424 37.7344 0 24.4736-16.9984 40.192-55.9616 40.192h-35.6352z m0 134.7584v-89.6h42.7008c42.2912 0 64.6656 12.9024 64.6656 42.752 0 31.8976-22.8352 46.848-64.6656 46.848h-42.7008zM548.3008 665.6h62.976l21.5552-42.7008c6.656-13.6704 12.8512-27.3408 19.456-40.6016h2.0992c7.4752 13.2608 14.9504 27.3408 22.4256 40.6016l25.7024 42.7008H768l-72.5504-114.0224 67.9936-118.1184h-62.976l-19.5072 41.0112c-5.4272 13.312-11.6224 26.5216-16.9984 39.424h-1.6896c-7.0144-12.9024-14.08-26.112-20.736-39.424l-23.1936-41.0112h-65.536l68.0448 111.104L548.3008 665.6z" fill="#888888" p-id="8209"></path></svg>