<svg t="1596792153984" class="icon" viewBox="0 0 1024 1024" version="1.1" xmlns="http://www.w3.org/2000/svg" width="200" height="200"><path d="M554.496 690.6368v162.5088H469.1456V690.688h85.3504z m113.92-82.5344L783.36 722.944 722.9952 783.36l-114.8928-114.944 60.3136-60.3136z m-313.1904 0l60.3648 60.3136L300.6464 783.36l-60.3648-60.3648 114.944-114.8928z m-22.1696-138.9568v85.3504H170.496V469.1456h162.56z m520.0896 0v85.3504H690.688V469.1456h162.5088zM300.6464 240.2816l114.944 114.944-60.3648 60.3648-114.944-114.944 60.3648-60.3648z m422.4 0L783.36 300.6464l-114.944 114.944-60.3136-60.3648 114.8928-114.944zM554.496 170.496v162.56H469.1456V170.496h85.3504z"></path></svg>