<?xml version="1.0" standalone="no"?><!DOCTYPE svg PUBLIC "-//W3C//DTD SVG 1.1//EN" "http://www.w3.org/Graphics/SVG/1.1/DTD/svg11.dtd"><svg t="1627018410458" class="icon" viewBox="0 0 1024 1024" version="1.1" xmlns="http://www.w3.org/2000/svg" p-id="3645" xmlns:xlink="http://www.w3.org/1999/xlink" width="200" height="200"><defs><style type="text/css">@font-face { font-family: feedback-iconfont; src: url("//at.alicdn.com/t/font_1031158_1uhr8ri0pk5.eot?#iefix") format("embedded-opentype"), url("//at.alicdn.com/t/font_1031158_1uhr8ri0pk5.woff2") format("woff2"), url("//at.alicdn.com/t/font_1031158_1uhr8ri0pk5.woff") format("woff"), url("//at.alicdn.com/t/font_1031158_1uhr8ri0pk5.ttf") format("truetype"), url("//at.alicdn.com/t/font_1031158_1uhr8ri0pk5.svg#iconfont") format("svg"); }
</style></defs><path d="M870.4 102.4v389.12a279.808 279.808 0 0 0-102.4-29.5936V204.8H204.8v563.2h257.1264c3.328 36.608 13.6192 71.168 29.5936 102.4H102.4V102.4h768z m-358.4 352.7168H307.2v102.4h204.8v-102.4zM307.2 284.4672h384v90.9824H307.2V284.4672zM742.4 896a153.6 153.6 0 1 1 0-307.2 153.6 153.6 0 0 1 0 307.2z m0 76.8a230.4 230.4 0 1 0 0-460.8 230.4 230.4 0 0 0 0 460.8z m128-192h-166.4V614.4h76.8v89.6H870.4v76.8z" p-id="3646"></path></svg>
