<svg t="1608617840181" class="icon" viewBox="0 0 1024 1024" version="1.1" xmlns="http://www.w3.org/2000/svg"  width="200" height="200"><path d="M195.7632 128h363.2128l260.8128 263.936V512H870.4v256h-50.6112v128H195.7632v-128H153.6V512h42.1632V128zM735.488 768H280.0896v42.6752H735.488V768z m-236.1088-315.7248l-0.0512-238.9504h-219.2128V512H735.488v-59.7248h-236.1088z m84.2752-178.6112l0.0512 93.2608h92.1344l-92.16-93.2608z m-169.3184 435.5584c12.6976 0 26.624-4.3008 37.6832-13.9264l-12.0832-19.8656c-6.3488 5.3248-14.1312 9.216-22.3232 9.216-16.384 0-28.4672-13.9264-28.4672-35.6352 0-21.504 11.8784-35.6352 29.4912-35.6352 6.3488 0 11.6736 2.6624 17.408 7.5776l14.336-19.456A50.1504 50.1504 0 0 0 416.9728 588.8C385.8432 588.8 358.4 610.9184 358.4 649.0112s24.1664 60.2112 55.9104 60.2112z m92.032 0c29.9008 0 45.6704-16.1792 45.6704-36.2496 0-21.2992-16.7936-28.8768-31.9488-34.6112l-3.2-1.1776c-10.7008-3.9168-19.5328-7.168-19.5328-14.7968 0-6.5536 4.9152-11.0592 15.36-11.0592 8.3968 0 16.384 3.8912 24.576 9.8304l13.5168-18.2272c-9.4208-7.168-22.3232-14.1312-38.912-14.1312-26.2144 0-42.8032 14.5408-42.8032 35.0208 0 19.2512 16.1792 28.0576 30.72 33.5872l2.6624 1.024c11.1104 4.2752 21.2992 8.192 21.2992 16.1792 0 7.168-5.12 12.0832-16.5888 12.0832-10.6496 0-20.48-4.5056-30.72-12.4928l-13.7216 18.8416c11.4688 9.4208 28.2624 16.1792 43.6224 16.1792z m129.2544-2.8672l38.2976-114.688h-28.8768l-16.7936 57.1392c-2.304 8.448-4.608 17.2544-6.912 26.0352l-2.304 8.7808h-1.024l-2.304-8.7808c-2.304-8.7808-4.608-17.5872-6.912-26.0352l-16.7936-57.1392H561.664l39.1168 114.688h34.816z" fill="#B89B62" ></path></svg>