<?xml version="1.0" standalone="no"?><!DOCTYPE svg PUBLIC "-//W3C//DTD SVG 1.1//EN" "http://www.w3.org/Graphics/SVG/1.1/DTD/svg11.dtd"><svg t="1625451166053" class="icon" viewBox="0 0 1024 1024" version="1.1" xmlns="http://www.w3.org/2000/svg" p-id="5543" xmlns:xlink="http://www.w3.org/1999/xlink" width="200" height="200"><defs><style type="text/css"></style></defs><path d="M268.032 163.9168C332.6976 125.0048 419.072 102.4 512 102.4c92.928 0 179.3024 22.5792 243.968 61.5168C819.3792 202.112 870.4 262.0416 870.4 338.432v355.5072c0 73.6768-51.0208 131.4816-114.432 168.32C691.3024 899.8144 604.928 921.6 512 921.6c-92.928 0-179.3024-21.7856-243.968-59.3408C204.6208 825.4208 153.6 767.616 153.6 693.9392V338.432c0-76.3904 51.0208-136.32 114.432-174.5152zM243.2 679.68v14.2848c0 26.88 19.2 60.16 69.2736 89.2416 48.8448 28.3648 119.296 47.36 199.5264 47.36 80.256 0 150.6816-18.9952 199.5264-47.36 50.0992-29.0816 69.2736-62.336 69.2736-89.2416v-14.2848c-7.9872 5.7088-16.3072 11.008-24.832 15.9744-64.6656 37.5808-151.04 59.3664-243.968 59.3664-92.928 0-179.3024-21.7856-243.968-59.3664a316.1088 316.1088 0 0 1-24.832-15.9744z m512.768-166.7072c-64.6656 38.9376-151.04 61.5424-243.968 61.5424-92.928 0-179.3024-22.6048-243.968-61.5424a314.88 314.88 0 0 1-24.832-16.5632v30.9248c0 26.9056 19.2 60.16 69.2736 89.2672 48.8448 28.3648 119.296 47.36 199.5264 47.36 80.256 0 150.6816-18.9952 199.5264-47.36 50.0992-29.1072 69.2736-62.3616 69.2736-89.2672V496.384c-7.9872 5.888-16.3072 11.4432-24.832 16.5632zM312.4736 245.9136C262.4 276.0704 243.2 310.528 243.2 338.432c0 27.904 19.2 62.3872 69.2736 92.544 48.8448 29.4144 119.296 49.1008 199.5264 49.1008 80.256 0 150.6816-19.712 199.5264-49.1008C761.6 400.8192 780.8 366.336 780.8 338.432c0-27.904-19.2-62.3616-69.2736-92.5184-48.8448-29.4144-119.296-49.1008-199.5264-49.1008-80.256 0-150.6816 19.712-199.5264 49.1008z" fill="#01A375" p-id="5544"></path></svg>
