<svg t="1607328526264" class="icon" viewBox="0 0 1024 1024" version="1.1" xmlns="http://www.w3.org/2000/svg" width="200" height="200"><path d="M102.4 153.6h819.2v684.8H102.4V153.6z m102.4 102.4v99.2256h614.4V256H204.8z m0 480h614.4V457.5744H204.8v278.4256z m105.6256-430.3872a33.5872 33.5872 0 1 1-67.2256 0 33.5872 33.5872 0 0 1 67.2256 0z m78.336 33.5872a33.5872 33.5872 0 1 0 0-67.2256 33.5872 33.5872 0 0 0 0 67.2256z m145.664-33.5872a33.5872 33.5872 0 1 1-67.2256 0 33.5872 33.5872 0 0 1 67.2256 0z m-164.9664 302.3872H288v89.6h81.408v-89.6z m40.704 0h81.4592v89.6h-81.408v-89.6z m203.6736-89.6h-81.4592v179.2h81.408v-179.2z m40.704 89.6h81.4592v89.6h-81.408v-89.6z"></path></svg>