<?xml version="1.0" standalone="no"?><!DOCTYPE svg PUBLIC "-//W3C//DTD SVG 1.1//EN" "http://www.w3.org/Graphics/SVG/1.1/DTD/svg11.dtd"><svg t="1653618003544" class="icon" viewBox="0 0 1024 1024" version="1.1" xmlns="http://www.w3.org/2000/svg" p-id="19782" xmlns:xlink="http://www.w3.org/1999/xlink" width="200" height="200"><defs><style type="text/css">@font-face { font-family: feedback-iconfont; src: url("//at.alicdn.com/t/font_1031158_u69w8yhxdu.woff2?t=1630033759944") format("woff2"), url("//at.alicdn.com/t/font_1031158_u69w8yhxdu.woff?t=1630033759944") format("woff"), url("//at.alicdn.com/t/font_1031158_u69w8yhxdu.ttf?t=1630033759944") format("truetype"); }
</style></defs><path d="M513.536 102.4l184.1152 107.008v214.1184l-184.1664 107.008-184.1152-107.008V209.408L513.4848 102.4z m0 112.2304l-87.6544 50.944v101.8368l87.6032 50.8928 87.6032-50.8928v-101.888l-87.552-50.8928zM735.5392 489.0624l-186.0096 108.1344v216.2688L735.5392 921.6 921.6 813.4656v-216.2688l-186.0608-108.1344zM470.6816 598.272l-184.1152-107.008L102.4 598.2208v214.0672l184.1664 107.008 184.1152-107.008v-214.0672zM198.9632 654.336l87.552-50.944 87.6544 50.944v101.8368l-87.6032 50.8928-87.6032-50.8928v-101.888z" p-id="19783"></path></svg>