<svg class="icon" viewBox="0 0 1024 1024" width="200" height="200" version="1.1" xmlns="http://www.w3.org/2000/svg"><g transform="translate(9.708 1.284)" opacity=".8" fill-rule="nonzero" fill="none"><path fill="#F9F9F9" d="M51.744 23.346l-25.64 14.9-25.81-14.9 25.64-14.901z"></path><path fill="#EEE" d="M25.97 12.386l18.825 10.869-18.887 10.762z"></path><path fill="#DADADA" d="M7.267 23.254L25.97 12.386l-.061 21.631z"></path><path fill="#EEE" d="M51.744 23.346l-.084 29.216-25.64 14.9.084-29.216z"></path><path fill="#DADADA" d="M26.104 38.246l-.084 29.216-25.81-14.9.084-29.217z"></path><g><path fill="#D8D8D8" d="M25.973 12.336l-1.102.833L43.52 24.007l1.298-.726z"></path><path fill="url(#a)" d="M20.198 11.014v12.007L1.244 12.127 1.328.12z" transform="translate(24.616 .26)"></path><path fill="#DADADA" d="M43.6 12.05l-.084 11.955-18.768-10.9.084-11.954z"></path><path fill="#F9F9F9" d="M25.937.38l-1.102.777 18.681 10.788 1.298-.672z"></path><path fill="#F9F9F9" d="M43.516 11.945l1.298-.672v12.008l-1.294.724z"></path><g><path fill="#D8D8D8" d="M8.492 22.485l-1.102.833 18.522 10.701 1.298-.727z"></path><path fill="url(#b)" d="M19.94 10.757v12.007L1.111 12.007 1.196 0z" transform="translate(7.267 10.528)"></path><path fill="#DADADA" d="M25.992 22.063l-.084 11.954-18.64-10.763L7.35 11.3z"></path><path fill="#F9F9F9" d="M8.457 10.528l-1.103.778 18.554 10.65 1.298-.67z"></path><path fill="#F9F9F9" d="M25.908 21.957l1.298-.672v12.007l-1.294.725z"></path></g></g><ellipse fill="#F9F9F9" transform="rotate(30 38.008 13.68)" cx="38.008" cy="13.68" rx="1" ry="1"></ellipse></g></svg>
