<svg t="1608617681334" class="icon" viewBox="0 0 1024 1024" version="1.1" xmlns="http://www.w3.org/2000/svg"  width="200" height="200"><path d="M558.976 128H195.7632v384H153.6v256h42.1632v128h624.0512v-128H870.4V512h-50.6112v-120.064L558.976 128zM280.0896 768H735.488v42.6752H280.0896V768z m219.2128-554.6752l0.0512 238.9504h236.1088V512H280.0896V213.3248h219.2128z m84.3776 153.6l-0.0512-93.2608 92.16 93.2608H583.68z m176 345.344a38.0928 38.0928 0 0 1-14.7712 2.5088c-19.8144 0-26.8032-13.0048-26.8032-33.2288v-124.544h28.544v125.696c0 6.6304 2.9184 8.7552 5.632 8.7552 1.1776 0 1.9456 0 3.8912-0.384l3.5072 21.1712z m-427.5968 2.5088c-30.4896 0-54.1952-21.1712-54.1952-57.1392 0-35.1488 24.8576-57.1136 50.688-57.1136 29.952 0 45.4912 21.9648 45.4912 51.8912 0 5.4272-0.5888 10.6752-1.3568 13.2096h-67.072c2.3552 17.8688 14.0032 27.1872 30.1312 27.1872 8.96 0 16.7168-2.7136 24.4992-7.5776l9.728 17.4848c-10.7008 7.3984-24.4992 12.0576-37.888 12.0576z m-26.8032-68.1984c2.1248-15.744 12.2368-23.9104 23.7056-23.9104 13.9776 0 20.5824 9.344 20.5824 23.9104h-44.288z m79.616 65.4848l34.048-56.7552-31.8976-52.0704h30.72l10.88 19.2512c3.0976 6.2208 6.4 12.4416 9.728 18.432h0.768c1.1008-2.6112 2.2784-5.2992 3.456-7.9872 1.536-3.456 3.072-6.9632 4.5056-10.4448l9.1136-19.2512h29.5424l-31.872 55.3728 34.0224 53.4528h-30.72l-12.032-20.0192a861.6704 861.6704 0 0 1-5.248-9.5232l-5.248-9.5232h-0.9728c-1.8432 3.712-3.6352 7.4752-5.4272 11.264v0.0512l-3.712 7.7312-10.112 20.0192h-29.5168z m200.4736-10.496c-10.496 9.1392-23.7056 13.2096-35.7376 13.2096-30.1312 0-53.0432-20.992-53.0432-57.1392 0-36.1216 26.0352-57.1136 55.552-57.1136 13.4144 0 23.7056 5.248 31.6672 12.032l-13.568 18.4832c-5.4528-4.6592-10.496-7.1936-16.5376-7.1936-16.7168 0-27.9808 13.3888-27.9808 33.792 0 20.608 11.4688 33.8176 27.008 33.8176 7.7824 0 15.1552-3.6864 21.1712-8.7296l11.4688 18.8416z m64.6144 13.2096c-30.5152 0-54.1952-21.1712-54.1952-57.1392 0-35.1488 24.8576-57.1136 50.688-57.1136 29.952 0 45.4912 21.9648 45.4912 51.8912 0 5.4272-0.5888 10.6752-1.3568 13.2096h-67.072c2.3552 17.8688 14.0032 27.1872 30.1312 27.1872 8.96 0 16.7168-2.7136 24.4992-7.5776l9.728 17.4848c-10.7008 7.3984-24.4992 12.0576-37.888 12.0576z m-26.8032-68.1984c2.1248-15.744 12.2368-23.9104 23.7056-23.9104 13.9776 0 20.5824 9.344 20.5824 23.9104h-44.288z" fill="#2CA340" ></path></svg>