<?xml version="1.0" standalone="no"?><!DOCTYPE svg PUBLIC "-//W3C//DTD SVG 1.1//EN" "http://www.w3.org/Graphics/SVG/1.1/DTD/svg11.dtd"><svg t="1643167739386" class="icon" viewBox="0 0 1024 1024" version="1.1" xmlns="http://www.w3.org/2000/svg" p-id="18194" xmlns:xlink="http://www.w3.org/1999/xlink" width="200" height="200"><defs><style type="text/css"></style></defs><path d="M512 170.666667C385.621333 170.666667 275.2 231.594667 181.461333 331.52a760.874667 760.874667 0 0 0-83.584 107.392l-9.856 15.701333c-9.045333 14.72-15.573333 26.538667-19.498666 34.432l-9.557334 19.072 9.557334 19.072c5.248 10.538667 15.061333 28.032 29.354666 50.133334a760.874667 760.874667 0 0 0 83.626667 107.392c93.696 99.925333 204.117333 160.853333 330.496 160.853333 126.378667 0 236.8-60.928 330.538667-160.853333a760.874667 760.874667 0 0 0 83.584-107.392l9.856-15.658667c9.045333-14.762667 15.573333-26.538667 19.498666-34.474667l9.557334-19.072-9.557334-19.072a565.077333 565.077333 0 0 0-29.354666-50.133333 760.874667 760.874667 0 0 0-83.626667-107.349333C748.8 231.594667 638.421333 170.666667 512 170.666667z m0 85.333333c99.328 0 189.226667 49.621333 268.288 133.888a676.394667 676.394667 0 0 1 74.154667 95.317333l8.533333 13.610667 5.589333 9.258667-1.877333 3.242666a676.394667 676.394667 0 0 1-86.442667 114.986667c-79.018667 84.309333-168.96 133.973333-268.245333 133.973333-99.328 0-189.226667-49.664-268.288-133.973333a676.394667 676.394667 0 0 1-74.154667-95.274667l-8.533333-13.610666-5.632-9.344 9.685333-15.829334 4.48-7.04a676.394667 676.394667 0 0 1 74.154667-95.317333C322.773333 305.621333 412.672 256 512 256z" p-id="18195"></path><path d="M512 354.901333a153.173333 153.173333 0 1 0 0 306.432 153.173333 153.173333 0 0 0 0-306.432z m0 85.333334a67.84 67.84 0 1 1 0 135.765333 67.84 67.84 0 0 1 0-135.765333z"  p-id="18196"></path></svg>
