<?xml version="1.0" standalone="no"?><!DOCTYPE svg PUBLIC "-//W3C//DTD SVG 1.1//EN" "http://www.w3.org/Graphics/SVG/1.1/DTD/svg11.dtd"><svg t="1625452946429" class="icon" viewBox="0 0 1024 1024" version="1.1" xmlns="http://www.w3.org/2000/svg" p-id="14741" xmlns:xlink="http://www.w3.org/1999/xlink" width="200" height="200"><defs><style type="text/css"></style></defs><path d="M558.976 128l260.8128 263.936V512H870.4v256h-50.6112v128H195.7632v-128H153.6V512h42.1632V128h363.2128zM280.0896 768v42.6752H735.488V768H280.0896z m219.2128-554.6752h-219.2128V512H735.488v-59.7248h-236.1088l-0.0512-238.9504z m84.3776 153.6h92.1344l-92.16-93.2608 0.0256 93.2608z m-212.8384 347.8528h28.5696v-86.272h20.4032v-22.528h-20.4032v-9.344c0-12.032 4.6592-17.1008 13.2096-17.1008 3.5072 0 7.7824 0.768 11.4688 2.3296l5.248-21.1712a62.1056 62.1056 0 0 0-20.608-3.6864c-27.392 0-37.888 17.4848-37.888 40.2176v8.96l-14.5664 1.152v21.1712h14.592v86.272z m67.4304 0h28.3648v-108.8H438.272v108.8z m14.1824-126.3104c9.9072 0 16.7168-6.1952 16.7168-15.7184 0-9.344-6.8096-15.5648-16.7168-15.5648s-16.512 6.2208-16.512 15.5648c0 9.4976 6.6048 15.7184 16.512 15.7184z m74.2656 129.024c6.8096 0 11.4688-1.152 14.7712-2.5088l-3.4816-21.1968c-1.9456 0.384-2.7392 0.384-3.8912 0.384-2.7392 0-5.632-2.1248-5.632-8.7296v-125.696h-28.5696v124.5184c0 20.224 6.9888 33.2288 26.8032 33.2288z m122.3936-12.032l-9.728-17.4848c-7.7568 4.864-15.5392 7.5776-24.4736 7.5776-16.128 0-27.776-9.344-30.1056-27.2128h67.0208c0.768-2.5344 1.3824-7.7824 1.3824-13.2096 0-29.952-15.5648-51.8912-45.4656-51.8912-25.856 0-50.7136 21.9648-50.7136 57.1392 0 35.9424 23.68 57.1136 54.1952 57.1136 13.4144 0 27.2128-4.6592 37.888-12.032z m-40.9856-80.0512c-11.4688 0-21.5808 8.1408-23.7056 23.8848h44.288c0-14.592-6.6048-23.8848-20.5824-23.8848z" fill="#556499" p-id="14742"></path></svg>
