<?xml version="1.0" standalone="no"?><!DOCTYPE svg PUBLIC "-//W3C//DTD SVG 1.1//EN" "http://www.w3.org/Graphics/SVG/1.1/DTD/svg11.dtd"><svg t="1625456989548" class="icon" viewBox="0 0 1024 1024" version="1.1" xmlns="http://www.w3.org/2000/svg" p-id="14868" xmlns:xlink="http://www.w3.org/1999/xlink" width="200" height="200"><defs><style type="text/css"></style></defs><path d="M870.4 128H153.6v768h716.8V128zM230.4 204.8h563.2v614.4H230.4V204.8z m167.936 213.3248h236.544L700.416 332.8h-327.68C336.5376 332.8 307.2 363.3664 307.2 401.0752v221.8496C307.2 660.6336 336.5376 691.2 372.736 691.2h278.528c36.1984 0 65.536-30.5664 65.536-68.2752V551.936A65.536 65.536 0 0 0 651.264 486.4H471.04v68.2752h163.84v51.2h-236.544a25.6 25.6 0 0 1-25.6-25.6v-136.5504a25.6 25.6 0 0 1 25.6-25.6z" fill="#B71E21" p-id="14869"></path></svg>