<svg t="1607741712265" class="icon" viewBox="0 0 1024 1024" version="1.1" xmlns="http://www.w3.org/2000/svg" width="200" height="200"><path d="M102.4 102.4h819.2v819.2H102.4z" fill="#000000" opacity=".01"></path><path d="M0 0h1024v1024H0z" fill="#000000" opacity=".01"></path><path d="M921.6 256H102.4v512h819.2V256zM372.48 606.208c-51.456 0-90.88-34.304-90.88-97.536 0-62.464 40.448-99.072 90.88-99.072 27.392 0 46.336 11.776 58.624 24.32l-19.968 24.064c-9.472-8.96-20.224-15.872-37.376-15.872-31.488 0-53.504 24.576-53.504 65.28 0 41.216 18.944 66.048 56.32 66.048 8.96 0 18.176-2.56 23.552-7.168v-37.376h-33.536v-30.976h67.328v85.504c-12.8 12.544-35.072 22.784-61.44 22.784z m105.5232-3.584v-189.696h116.224v31.744h-78.336v43.776h66.56v31.744h-66.56v50.688h81.152v31.744h-119.04z m236.4672 0h-37.888v-157.952h-53.248v-31.744h144.896v31.744h-53.76v157.952z" fill="#3365B2"></path></svg>