<svg t="1607327976341" class="icon" viewBox="0 0 1024 1024" version="1.1" xmlns="http://www.w3.org/2000/svg" width="200" height="200"><path d="M409.6 102.4H153.6v179.2-101.5808L102.4 179.2v101.5808L153.6 281.6V358.4h256V102.4zM324.2496 273.0496H238.9504V187.7504h85.2992v85.2992zM409.6 179.2l512 0.8192V281.6L409.6 280.7808V179.2z m204.8 460.8h256v-77.6192L921.6 563.2V461.6192L870.4 460.8V384h-256V563.2 461.6192L102.4 460.8v101.5808L614.4 563.2v76.8z m85.3504-170.6496h85.2992v85.2992h-85.2992V469.3504zM153.6 665.6h256v256H153.6v-256z m0 179.2l-51.2-0.8192V742.4l51.2 0.8192V844.8z m85.3504-8.5504h85.2992v-85.2992H238.9504v85.2992zM921.6 743.2192L409.6 742.4v101.5808l512 0.8192v-101.5808z"></path></svg>