<?xml version="1.0" standalone="no"?><!DOCTYPE svg PUBLIC "-//W3C//DTD SVG 1.1//EN" "http://www.w3.org/Graphics/SVG/1.1/DTD/svg11.dtd"><svg t="1625451243073" class="icon" viewBox="0 0 1024 1024" version="1.1" xmlns="http://www.w3.org/2000/svg" p-id="5670" xmlns:xlink="http://www.w3.org/1999/xlink" width="200" height="200"><defs><style type="text/css"></style></defs><path d="M102.4 102.4h819.2v819.2H102.4z" fill="#000000" opacity=".01" p-id="5671"></path><path d="M0 0h1024v1024H0z" fill="#000000" opacity=".01" p-id="5672"></path><path d="M102.4 256h819.2v512H102.4V256z m264.0896 253.568a1500.928 1500.928 0 0 0 17.7408-68.1472h1.408c1.8432 6.9888 3.6352 14.1312 5.4528 21.2992 4.0448 15.872 8.1152 31.8976 12.5696 46.848l6.1952 22.8096h-49.5616l6.1952-22.8096zM294.4 618.2656h42.24l14.6432-53.504h67.584l14.6432 53.504h43.648L410.1376 409.6h-48.9984L294.4 618.2656z m207.1552 0h41.6768v-74.0608h27.8784c44.7744 0 80.5376-21.4016 80.5376-68.992 0-49.28-35.4816-65.6128-81.664-65.6128h-68.4288v208.6656z m41.6768-107.008v-68.4288h23.6544c28.7232 0 43.9296 8.1664 43.9296 32.384 0 23.936-13.824 36.0448-42.5216 36.0448h-25.088z m187.8272 107.008V409.6h-41.6768v208.6656h41.6768z" fill="#E63B43" p-id="5673"></path></svg>
