<svg t="1608617866731" class="icon" viewBox="0 0 1024 1024" version="1.1" xmlns="http://www.w3.org/2000/svg"  width="200" height="200"><path d="M195.7632 128h363.2128l260.8128 263.936V512H870.4v256h-50.6112v128H195.7632v-128H153.6V512h42.1632V128zM735.488 768H280.0896v42.6752H735.488V768z m-236.1088-315.7248l-0.0512-238.9504h-219.2128V512H735.488v-59.7248h-236.1088z m84.2752-178.6112l0.0512 93.2608h92.1344l-92.16-93.2608z m-229.9392 420.4032V576.512H323.584v118.3744c0 12.9024-2.8672 19.456-12.4928 19.456-3.4816 0-6.5536-0.6144-9.6256-1.6384l-5.3248 22.3232c4.5056 1.6384 10.4448 3.072 19.2512 3.072 28.8768 0 38.2976-19.456 38.2976-44.032z m2.4576-152.576c0-9.8304-7.168-16.384-17.6128-16.384-10.24 0-17.408 6.5536-17.408 16.384 0 10.0352 7.168 16.5888 17.408 16.5888 10.4448 0 17.6128-6.5536 17.6128-16.5888z m59.9296 193.7408v-34.816l-1.024-18.8416c8.8064 7.9872 18.432 12.4928 28.4672 12.4928 25.1904 0 48.7424-22.7328 48.7424-62.0544 0-35.2256-16.7936-58.368-45.056-58.368-12.288 0-24.1664 6.5536-33.792 14.7456h-0.6144l-2.2528-11.8784h-24.576v158.72h30.1056z m0-74.5472c7.168 6.3488 14.5408 8.6016 20.6848 8.6016 13.9264 0 24.576-11.8784 24.576-36.864 0-21.9136-6.9632-33.9968-22.7328-33.9968-7.7824 0-14.7456 3.8912-22.528 11.8784v50.3808z m191.616 20.6848l-10.24-18.432c-8.192 5.12-16.384 7.9872-25.8048 7.9872-16.9984 0-29.2864-9.8304-31.744-28.672h70.656c0.8192-2.6624 1.4336-8.192 1.4336-13.9264 0-31.5392-16.384-54.6816-47.9232-54.6816-27.2384 0-53.4528 23.1424-53.4528 60.2112 0 37.888 24.9856 60.2112 57.1392 60.2112a72.192 72.192 0 0 0 39.936-12.6976zM564.48 596.992c-12.0832 0-22.7328 8.6016-24.9856 25.1904h46.6944c0-15.36-6.9632-25.1904-21.7088-25.1904z m172.6976 103.2192c0-20.0704-15.1552-28.672-42.8032-28.672h-19.456c-13.5168 0-18.0224-3.2768-18.0224-9.4208 0-4.7104 1.8432-7.168 4.9152-9.8304 4.9152 1.6384 10.24 2.6624 14.7456 2.6624 24.576 0 44.2368-13.1072 44.2368-38.912 0-7.168-2.2528-13.5168-5.12-17.408h19.456v-22.1184H693.76a53.9392 53.9392 0 0 0-17.2032-2.8672c-24.3712 0-46.2848 14.5408-46.2848 41.3696 0 13.5168 7.3728 24.3712 15.36 30.1056v0.8192c-6.9632 4.9152-12.9024 12.9024-12.9024 21.504 0 9.4208 4.5056 15.36 10.4448 19.2512v1.024c-10.4448 5.9392-16.384 14.1312-16.384 23.7568 0 20.2752 20.8896 29.4912 47.9232 29.4912 38.2976 0 62.464-17.6128 62.464-40.7552z m-78.6432-85.1968c0 13.7216 7.9872 21.2992 18.0224 21.2992 10.0352 0 18.0224-7.5776 18.0224-21.2992 0-13.312-7.7824-20.8896-18.0224-20.8896-10.24 0-18.0224 7.5776-18.0224 20.8896z m-6.5536 91.7504c0 9.6256 10.6496 15.1552 27.2384 15.1552 17.2032 0 29.0816-7.5776 29.0816-16.5888 0-8.192-6.7584-10.24-19.0464-10.24h-13.9264c-6.9632 0-11.8784-0.6144-15.9744-1.6384-5.12 4.096-7.3728 8.6016-7.3728 13.312z" fill="#C57A31" ></path></svg>