<svg t="1608617607649" class="icon" viewBox="0 0 1024 1024" version="1.1" xmlns="http://www.w3.org/2000/svg" width="200" height="200"><path d="M558.976 128H195.7632v384H153.6v256h42.1632v128h624.0512v-128H870.4V512h-50.6112v-120.064L558.976 128zM280.0896 768H735.488v42.6752H280.0896V768z m219.2128-554.6752l0.0512 238.9504h236.1088V512H280.0896V213.3248h219.2128z m84.3776 153.6l-0.0512-93.2608 92.16 93.2608H583.68z m-181.4272 372.736c-8.3456 0-13.9776-1.3312-18.2528-2.8928l5.0432-21.1712c2.9184 0.9728 5.8368 1.536 9.1392 1.536 9.1392 0 11.8528-6.2208 11.8528-18.432v-112.3328h28.5696v111.5392c0 23.296-8.96 41.7792-36.352 41.7792z m21.9648-170.7776c-9.728 0-16.512-6.2208-16.512-15.744 0-9.3184 6.8096-15.5392 16.512-15.5392 9.9072 0 16.7168 6.2208 16.7168 15.5392 0 9.5232-6.8096 15.744-16.7168 15.744z m47.616 168.0896v-150.6048h23.3472l2.1248 11.264h0.5888c9.1136-7.7568 20.4032-13.9776 32.0512-13.9776 26.8032 0 42.752 21.9648 42.752 55.3728 0 37.2992-22.3488 58.88-46.2336 58.88-9.5232 0-18.688-4.2752-27.0336-11.8528l0.9728 17.8688v33.024h-28.544z m48.2048-62.592c-5.8368 0-12.8-2.1248-19.6352-8.1408v-47.7952c7.3984-7.6032 14.0032-11.264 21.376-11.264 14.976 0 21.5808 11.4432 21.5808 32.256 0 23.68-10.112 34.944-23.3216 34.944z m177.024 29.3632c0 21.9392-22.9376 38.656-59.264 38.656-25.6512 0-45.4656-8.7552-45.4656-27.9808 0-9.1392 5.632-16.896 15.5392-22.528v-0.9728a20.6336 20.6336 0 0 1-9.9072-18.2784c0-8.1664 5.632-15.744 12.2368-20.4032v-0.768a35.6352 35.6352 0 0 1-14.592-28.5696c0-25.4464 20.8128-39.2448 43.9296-39.2448a51.2 51.2 0 0 1 16.3328 2.7136h39.2448v20.992h-18.4576c2.7136 3.6864 4.864 9.728 4.864 16.512 0 24.4736-18.688 36.9152-41.984 36.9152a46.336 46.336 0 0 1-13.9776-2.5344c-2.9184 2.56-4.6848 4.864-4.6848 9.344 0 5.8112 4.2752 8.9344 17.1008 8.9344h18.4576c26.24 0 40.6272 8.1664 40.6272 27.2128z m-74.624-80.8448c0 13.0304 7.5776 20.224 17.1008 20.224 9.5232 0 17.1008-7.1936 17.1008-20.224 0-12.6208-7.3728-19.8144-17.1008-19.8144-9.728 0-17.1008 7.168-17.1008 19.8144z m-6.2208 87.04c0 9.1392 10.112 14.3872 25.856 14.3872 16.3072 0 27.5968-7.168 27.5968-15.744 0-7.7568-6.4256-9.728-18.0736-9.728h-13.2352c-6.6048 0-11.264-0.5632-15.1552-1.536-4.864 3.8912-6.9888 8.1664-6.9888 12.6208z" fill="#C57A31"></path></svg>