<svg t="1608617904977" class="icon" viewBox="0 0 1024 1024" version="1.1" xmlns="http://www.w3.org/2000/svg"  width="200" height="200"><path d="M195.7632 128h363.2128l260.8128 263.936V512H870.4v256h-50.6112v128H195.7632v-128H153.6V512h42.1632V128zM735.488 768H280.0896v42.6752H735.488V768z m-236.1088-315.7248l-0.0512-238.9504h-219.2128V512H735.488v-59.7248h-236.1088z m84.2752-178.6112l0.0512 93.2608h92.1344l-92.16-93.2608z m-218.88 432.896v-117.5552h-30.1056v118.3744c0 12.9024-2.8672 19.456-12.4928 19.456-3.4816 0-6.5536-0.6144-9.6256-1.6384L307.2 747.52c4.5056 1.6384 10.4448 3.072 19.2512 3.072 28.8768 0 38.2976-19.456 38.2976-44.032z m2.4576-152.576c0-9.8304-7.168-16.384-17.6128-16.384-10.24 0-17.408 6.5536-17.408 16.384 0 10.0352 7.168 16.5888 17.408 16.5888 10.4448 0 17.6128-6.5536 17.6128-16.5888z m108.288 116.3264c0-21.2992-16.8192-28.8768-31.9744-34.6112l-3.2-1.1776c-10.7008-3.9168-19.5328-7.168-19.5328-14.7968 0-6.5536 4.9152-11.0592 15.36-11.0592 8.3968 0 16.384 3.8912 24.576 9.8304l13.5168-18.2272c-9.4208-7.168-22.3232-14.1312-38.912-14.1312-26.2144 0-42.8032 14.5408-42.8032 35.0208 0 19.2512 16.1792 28.0576 30.72 33.5872l2.6624 1.024c11.1104 4.2752 21.2992 8.192 21.2992 16.1792 0 7.168-5.12 12.0832-16.5888 12.0832-10.6496 0-20.48-4.5056-30.72-12.4928l-13.7216 18.8416c11.4688 9.4208 28.2624 16.1792 43.6224 16.1792 29.9008 0 45.6704-16.1792 45.6704-36.2496z m70.8608 36.2496c28.672 0 55.0912-22.1184 55.0912-60.2112s-26.4192-60.2112-55.0912-60.2112-55.0912 22.1184-55.0912 60.2112 26.4192 60.2112 55.0912 60.2112z m0-24.576c-15.5648 0-24.3712-13.9264-24.3712-35.6352 0-21.504 8.8064-35.6352 24.3712-35.6352s24.3712 14.1312 24.3712 35.6352c0 21.7088-8.8064 35.6352-24.3712 35.6352z m110.3872 21.7088v-78.848c8.3968-8.3968 14.336-12.9024 23.7568-12.9024 11.264 0 16.1792 6.144 16.1792 23.9616v67.7888h30.1056v-71.4752c0-28.8768-10.6496-46.08-35.4304-46.08-15.5648 0-27.2384 8.192-37.2736 18.0224h-0.6144l-2.2528-15.1552h-24.576v114.688h30.1056z" fill="#5090AB" ></path></svg>