<svg t="1607510070489" class="icon" viewBox="0 0 1024 1024" version="1.1" xmlns="http://www.w3.org/2000/svg" width="200" height="200"><path d="M562.4064 128L819.2 391.936V896H204.8V128h357.6064z m173.7728 332.8H512V213.3248h-224.1792v597.3504h448.3584V460.8z m-46.08-80.8448l-103.9872-106.88v106.88h103.9872zM307.2 435.2h153.6v51.2h-153.6v-51.2z m153.6-102.4h-153.6v51.2h153.6v-51.2z" fill="#2A62B8"></path><path d="M204.8 435.2v76.8H128l76.8-76.8z m615.168 0L819.2 512h76.8l-76.032-76.8z" fill="#E08C02" ></path><path d="M896 725.3248V512H128v256h768v-42.6752z m-527.872 20.1472c-26.112 0-35.328-17.152-35.328-43.776V537.6h37.632v165.632c0 8.704 3.84 11.52 7.424 11.52 1.536 0 2.56 0 5.12-0.512l4.608 27.904c-4.352 1.792-10.496 3.328-19.456 3.328z m91.6224 0c-30.976 0-44.288-21.504-44.288-57.344v-89.6h37.632v84.736c0 22.016 6.144 29.952 19.968 29.952 11.776 0 19.456-5.12 29.184-17.92v-96.768h37.632v143.36h-30.72l-2.816-20.48h-1.024c-12.288 14.592-26.112 24.064-45.568 24.064z m202.2912-18.944c-12.544 10.752-26.88 18.944-43.264 18.944-25.6 0-42.496-18.176-42.496-42.496 0-30.72 24.832-46.848 82.688-52.992-0.768-14.08-6.912-24.832-24.576-24.832-13.312 0-26.112 5.888-39.424 13.568l-13.568-24.832c16.896-10.496 37.376-18.944 59.904-18.944 36.352 0 55.04 21.76 55.04 63.232v83.712H665.6l-2.56-15.36h-1.024z m-49.92-26.624c0 11.264 7.936 16.128 18.944 16.128 10.752 0 18.688-5.12 27.904-14.08v-28.928c-35.072 4.352-46.848 14.08-46.848 26.88z" fill="#E89F28"></path></svg>