<svg t="1608617853754" class="icon" viewBox="0 0 1024 1024" version="1.1" xmlns="http://www.w3.org/2000/svg"  width="200" height="200"><path d="M195.7632 128h363.2128l260.8128 263.936V512H870.4v256h-50.6112v128H195.7632v-128H153.6V512h42.1632V128zM735.488 768H280.0896v42.6752H735.488V768z m-236.1088-315.7248l-0.0512-238.9504h-219.2128V512H735.488v-59.7248h-236.1088z m84.2752-178.6112l0.0512 93.2608h92.1344l-92.16-93.2608z m44.2624 441.088h0.8192l2.2528 11.8784h24.3712V563.2H625.408v40.3456l1.024 18.0224c-8.192-7.5776-16.1792-12.4928-29.0816-12.4928-24.7808 0-48.128 22.9376-48.128 60.2112 0 37.6832 18.432 60.2112 46.8992 60.2112 11.8784 0 23.3472-6.5536 31.744-14.7456z m-47.7184-45.6704c0 23.7568 8.6016 35.6352 23.7568 35.6352 7.9872 0 14.7456-3.2768 21.504-11.8784v-50.3808a30.9248 30.9248 0 0 0-21.504-8.6016c-12.9024 0-23.7568 12.288-23.7568 35.2256z m-191.6672 57.5488v-78.848c7.9872-8.6016 15.36-12.9024 21.9136-12.9024 10.8544 0 16.1792 6.144 16.1792 23.9616v67.7888h29.9008v-78.848c8.192-8.6016 15.5648-12.9024 22.1184-12.9024 10.8544 0 15.9744 6.144 15.9744 23.9616v67.7888h30.1056v-71.4752c0-28.8768-11.264-46.08-35.6352-46.08-14.9504 0-26.0096 9.0112-36.4544 20.0704-5.5296-12.6976-15.1552-20.0704-31.5392-20.0704-14.9504 0-25.6 8.192-35.2256 18.2272h-0.6144l-2.2528-15.36H358.4v114.688h30.1056z" fill="#DD5151" ></path></svg>