<svg class="icon" viewBox="0 0 1024 1024" version="1.1" xmlns="http://www.w3.org/2000/svg" xmlns:xlink="http://www.w3.org/1999/xlink" width="1024" height="1024"><defs><style type="text/css"></style></defs><path d="M469.3504 789.3504a42.6496 42.6496 0 0 0 84.992 5.3248l0.3072-5.3248H640a128 128 0 0 1-255.744 8.3968l-0.256-8.3968h85.3504zM512 128a241.7664 241.7664 0 0 1 241.7664 241.7664v166.9632l133.888 214.2208H136.3456l133.888-214.272v-166.912a241.7664 241.7664 0 0 1 230.7072-241.5104z m0 85.3504a156.4672 156.4672 0 0 0-156.4672 156.416v191.488L290.304 665.4976h443.392l-65.2288-104.3456V369.7664A156.4672 156.4672 0 0 0 512 213.3504z"></path></svg>