<svg t="1607915222618" class="icon" viewBox="0 0 1024 1024" version="1.1" xmlns="http://www.w3.org/2000/svg" width="200" height="200"><path d="M870.4 128v768H153.6V128h716.8z m-76.8 76.8H230.4v614.4h563.2V204.8z m-230.3488 78.3872A61.0048 61.0048 0 0 0 511.9232 256c-22.4256 0-42.5472 11.52-53.5552 30.7712l-94.1568 162.7392-2.9184 5.1712a170.6752 170.6752 0 0 0 29.824 201.5232l4.9152 4.736 5.12 4.5056a170.4448 170.4448 0 0 0 77.9776 37.504l0.2048 0.0512v69.0944h61.5424v-68.4544l3.584-0.6144a171.2896 171.2896 0 0 0 88.576-46.7968 171.1616 171.1616 0 0 0 26.9056-206.72l-94.5152-162.816-2.176-3.5072z m-51.5328 34.3808l0.2048-0.0256h0.2048c0.0512 0.0256 0.0768 0.0768 0.1024 0.1536l0.0768 0.1024 94.464 162.6624 2.432 4.5056a109.9008 109.9008 0 0 1-19.8656 127.8464 109.1328 109.1328 0 0 1-48.4352 28.2368l-0.0256-112.9728h-61.5424V640a109.2608 109.2608 0 0 1-44.8512-27.1872 109.4656 109.4656 0 0 1-17.408-132.352l94.5152-162.7904 0.128-0.1024z m29.1584 110.1568v64.512h-61.5424v-64.512h61.5424z" fill="#449C34"></path></svg>