<svg t="1608617827631" class="icon" viewBox="0 0 1024 1024" version="1.1" xmlns="http://www.w3.org/2000/svg"  width="200" height="200"><path d="M677.376 613.7856l-23.552 37.2736h35.4048V621.568c0-8.8064 0.6144-22.7328 1.024-31.5392h-0.8192c-3.072 6.7072-6.4768 13.1328-10.0352 19.8656l-2.048 3.8912zM555.392 688.9472c-6.144 0-13.5168-2.2528-20.6848-8.6016v-50.3808c7.7824-7.9872 14.7456-11.8784 22.528-11.8784 15.7696 0 22.7328 12.0832 22.7328 33.9968 0 24.9856-10.6496 36.864-24.576 36.864z" fill="#0C2564" ></path><path d="M195.7632 128h363.2128l260.8128 263.936V512H870.4v256h-50.6112v128H195.7632v-128H153.6V512h42.1632V128zM735.488 768H280.0896v42.6752H735.488V768z m-236.1088-315.7248l-0.0512-238.9504h-219.2128V512H735.488v-59.7248h-236.1088z m84.2752-178.6112l0.0512 93.2608h92.1344l-92.16-93.2608z m133.6576 437.1968v-36.6592h17.8176v-23.1424h-17.8176V563.2h-36.2496l-56.5248 90.3168v20.6848h64.7168v36.6592h28.0576z m-410.0864 0h30.1056v-78.848c7.9872-8.6016 15.36-12.9024 21.9136-12.9024 10.8544 0 16.1792 6.144 16.1792 23.9616v67.7888h29.9008v-78.848c8.192-8.6016 15.5648-12.9024 22.1184-12.9024 10.8544 0 15.9744 6.144 15.9744 23.9616v67.7888h30.1056v-71.4752c0-28.8768-11.264-46.08-35.6352-46.08-14.9504 0-26.0096 9.0112-36.4544 20.0704-5.5296-12.6976-15.1552-20.0704-31.5392-20.0704-14.9504 0-25.6 8.192-35.2256 18.2272h-0.6144l-2.2528-15.36H307.2v114.688z m197.376 44.032h30.1312v-34.816l-1.024-18.8416c8.8064 7.9872 18.432 12.4928 28.4672 12.4928 25.1904 0 48.7424-22.7328 48.7424-62.0544 0-35.2256-16.7936-58.368-45.056-58.368-12.288 0-24.1664 6.5536-33.792 14.7456h-0.6144l-2.2528-11.8784h-24.576v158.72z" fill="#0C2564" ></path></svg>