<svg t="1607915183978" class="icon" viewBox="0 0 1024 1024" version="1.1" xmlns="http://www.w3.org/2000/svg" width="200" height="200"><path d="M870.4 128v768h-166.4v-76.8H793.6v-112.8448c-42.6752-37.8368-79.9744-60.3648-121.856-68.1472l-6.528-1.536a195.9424 195.9424 0 0 1-29.4144-8.8064 244.0704 244.0704 0 0 1-23.1936-10.88l-12.1088-6.4768 1.1008 3.6608c3.1488 11.5712 4.1472 21.76 2.4832 31.6416l-0.896 4.224c-5.6064 22.528-26.4192 27.904-45.44 19.2-9.984-4.5312-20.7616-13.1072-31.7952-24.448-20.4544-20.992-38.2208-47.616-44.16-68.608l-1.0752-4.4032c-0.256-1.2032-0.8704-1.6896-7.0656-2.7648-10.496-1.792-26.9568-0.512-48.8448 4.1728l-4.4288 0.9984-3.6352 1.4848c-43.264 17.28-72.1408 20.0192-88.9856-0.3072l-2.048-2.6624c-16.1024-22.6048-4.4032-48.0256 28.7232-83.7632l7.552-7.9616 1.0496-5.8624c11.9552-60.16 50.944-98.6624 93.6192-111.744 11.5712-3.5328 22.528-5.1968 35.6096-5.9392l21.6064-0.9472c7.5776-0.5888 12.032-1.7664 15.6672-4.1984l1.792-1.3312c13.4656-11.3408 45.568-24.32 77.44-32.7424 15.9232-4.1984 30.1056-6.7584 41.0368-7.0912 23.04-0.6912 42.6752 7.808 37.7088 34.3552-1.8432 9.728-6.3232 17.5872-14.464 27.904l-1.1264 1.3312 27.392 8.2688a71.68 71.68 0 0 1 14.0544 5.888l26.2912 14.6688c10.4448 9.088 16.9472 16.2048 19.5072 21.3248 2.4832 4.9152 3.6096 15.36 3.4304 31.2832-1.3824 23.3984-4.6848 31.6672-9.8816 24.832l-7.0144-9.1392c-14.976-19.2-20.7104-24.064-30.9248-30.0032l-10.1632-5.7088c-21.0176-11.8016-32.9984-16.5632-64.5632-21.76-19.456-3.1744-31.744-19.3792-25.3952-38.528 1.3568-4.096 3.072-7.424 5.76-11.2896l1.28-1.792-0.4352 0.128c-24.2176 6.4-49.6384 16.4608-58.496 22.528l-1.536 1.1776c-12.288 10.2912-25.5232 14.592-42.9056 15.9232l-22.6304 1.024a100.608 100.608 0 0 0-24.832 4.0192c-28.5952 8.7552-55.936 36.4032-63.488 81.792l-0.8704 6.016-0.9472 7.7312-5.4528 5.4784c-12.5952 12.6464-21.9392 23.3728-27.9296 31.9232l-0.8192 1.1776 3.456-0.7936a200.704 200.704 0 0 0 23.552-7.8848l5.5808-2.2784 3.5328-1.1264c66.7904-15.5648 109.568-8.2432 118.272 33.5872 1.6384 7.9104 9.4208 21.376 19.6352 34.5088l2.9952 3.7888-4.9408-12.6208c-6.4-17.8944-7.5776-29.0304 5.632-40.0896 9.984-8.3968 19.7888-7.808 30.6432-3.2l2.9696 1.3312c-1.28-0.512 48.768 30.1824 68.864 37.888 7.4752 2.8928 14.9248 5.12 22.4 6.7328 40.3456 8.6272 75.4176 26.1888 119.6544 60.8768V204.8H230.4v614.4h89.6v76.8H153.6V128h716.8z m-243.2 691.2v76.8h-76.8v-76.8h76.8z m-153.6 76.8v-76.8h-76.8v76.8h76.8z" fill="#026898"></path></svg>