<?xml version="1.0" standalone="no"?><!DOCTYPE svg PUBLIC "-//W3C//DTD SVG 1.1//EN" "http://www.w3.org/Graphics/SVG/1.1/DTD/svg11.dtd"><svg t="1627018392524" class="icon" viewBox="0 0 1024 1024" version="1.1" xmlns="http://www.w3.org/2000/svg" p-id="3518" xmlns:xlink="http://www.w3.org/1999/xlink" width="200" height="200"><defs><style type="text/css">@font-face { font-family: feedback-iconfont; src: url("//at.alicdn.com/t/font_1031158_1uhr8ri0pk5.eot?#iefix") format("embedded-opentype"), url("//at.alicdn.com/t/font_1031158_1uhr8ri0pk5.woff2") format("woff2"), url("//at.alicdn.com/t/font_1031158_1uhr8ri0pk5.woff") format("woff"), url("//at.alicdn.com/t/font_1031158_1uhr8ri0pk5.ttf") format("truetype"), url("//at.alicdn.com/t/font_1031158_1uhr8ri0pk5.svg#iconfont") format("svg"); }
</style></defs><path d="M870.4 102.4v409.6s-51.2-76.8-102.4-83.7632V204.8H204.8v563.2h247.4496L384 870.4H102.4V102.4h768z m-358.4 352.7168H307.2v102.4h204.8v-102.4zM307.2 284.4672h384v90.9824H307.2V284.4672z m384 247.2448c-41.472 0-75.1616 33.4848-75.1616 74.8032v109.4144l-26.7776 42.5984h203.8784l-26.7776-42.5984v-109.4144c0-41.3184-33.6384-74.8032-75.1616-74.8032z m-146.3808 74.8032A146.0736 146.0736 0 0 1 691.2 460.8a146.0736 146.0736 0 0 1 146.3808 145.7152v89.088L921.6 829.44H460.8l84.0192-133.8368v-89.088zM691.2 921.6a82.8928 82.8928 0 0 1-83.0976-82.688h71.2192a11.8272 11.8272 0 0 0 23.7568 0h71.168c0 45.6704-37.1712 82.688-83.0464 82.688z" p-id="3519"></path></svg>
