<svg t="1608276923740" class="icon" viewBox="0 0 1024 1024" version="1.1" xmlns="http://www.w3.org/2000/svg" width="200" height="200"><path d="M558.976 128H195.7632v384H153.6v256h42.1632v128h624.0512v-128H870.4V512h-50.6112v-120.064L558.976 128zM280.0896 768H735.488v42.6752H280.0896V768z m219.2128-554.6752l0.0512 238.9504h236.1088V512H280.0896V213.3248h219.2128z m84.3776 153.6l-0.0512-93.2608 92.16 93.2608H583.68z m-212.8384 347.8528v-86.272h-14.5664v-21.1712l14.592-1.1776v-8.9344c0-22.7328 10.496-40.2176 37.888-40.2176 8.3456 0 15.7184 1.9456 20.5824 3.6864l-5.248 21.1712a30.976 30.976 0 0 0-11.4688-2.304c-8.5504 0-13.2096 5.0432-13.2096 17.0752v9.3184h20.4032v22.5536h-20.4032v86.272h-28.5696z m67.4304 0v-108.8h28.3648v108.8H438.272z m14.1824-126.3104c9.9072 0 16.7168-6.1952 16.7168-15.7184 0-9.344-6.8096-15.5648-16.7168-15.5648s-16.512 6.2208-16.512 15.5648c0 9.4976 6.6048 15.7184 16.512 15.7184z m74.2656 129.024c-19.8144 0-26.8032-13.0048-26.8032-33.2288v-124.544h28.5696v125.696c0 6.6304 2.9184 8.7552 5.632 8.7552 1.152 0 1.9456 0 3.8912-0.384l3.4816 21.1968a38.144 38.144 0 0 1-14.7712 2.5088z m122.3936-12.032c-10.6752 7.3728-24.4736 12.032-37.888 12.032-30.5152 0-54.1952-21.1712-54.1952-57.1136 0-35.1744 24.8576-57.1392 50.688-57.1392 29.952 0 45.4912 21.9648 45.4912 51.8912 0 5.4272-0.5888 10.6752-1.3568 13.2096h-67.072c2.3552 17.8688 14.0032 27.2128 30.1312 27.2128 8.96 0 16.7168-2.7392 24.4992-7.5776l9.728 17.4848z m-40.9856-80.0512c-11.4688 0-21.5808 8.1408-23.7056 23.8848h44.288c0-14.592-6.6048-23.8848-20.5824-23.8848z" fill="#556499"></path></svg>