<svg t="1609231001392" class="icon" viewBox="0 0 1024 1024" version="1.1" xmlns="http://www.w3.org/2000/svg" width="200" height="200"><path d="M576 166.4a64 64 0 1 1-128 0 64 64 0 0 1 128 0zM89.6 384a64 64 0 1 0 0-128 64 64 0 0 0 0 128z m610.816 205.7216l-188.16-272.384L336.896 590.336 181.3504 490.1888 102.4 435.2v509.0816h819.2V435.2l-80.5888 56.064-140.5952 98.4064z m-495.616 37.376l119.7568 77.1584 43.1104 27.7504 147.712-230.0416 159.3856 230.7584 42.24-29.5936L819.2 631.552v210.3296H204.8v-214.784zM934.4 384a64 64 0 1 0 0-128 64 64 0 0 0 0 128z" fill="#CD820A"></path></svg>
