<svg t="1608276762666" class="icon" viewBox="0 0 1024 1024" version="1.1" xmlns="http://www.w3.org/2000/svg" width="200" height="200"><path d="M558.976 128H195.7632v384H153.6v256h42.1632v128h624.0512v-128H870.4V512h-50.6112v-120.064L558.976 128zM280.0896 768H735.488v42.6752H280.0896V768z m219.2128-554.6752l0.0512 238.9504h236.1088V512H280.0896V213.3248h219.2128z m84.3776 153.6l-0.0512-93.2608 92.16 93.2608H583.68z m63.488 328.448h-28.5952v-86.272h-14.5664v-21.1712l14.592-1.1776v-8.9344c0-22.7328 10.496-40.2176 37.888-40.2176 8.3456 0 15.7184 1.9456 20.5824 3.6864l-5.248 21.1968a30.976 30.976 0 0 0-11.4688-2.3296c-8.5504 0-13.2096 5.0432-13.2096 17.0752v9.344h20.4032v22.528h-20.4032v86.272z m-122.8288 2.7136c-27.008 0-44.4928-21.3504-44.4928-57.1136 0-35.3536 22.144-57.1392 45.6704-57.1392 12.2368 0 19.8144 4.6848 27.5712 11.8528l-0.9728-17.0752v-38.2976h28.3904v155.0592h-23.1424l-2.1248-11.264h-0.768c-7.9872 7.7824-18.8672 13.9776-30.1312 13.9776z m7.3728-23.5008c-14.3616 0-22.528-11.264-22.528-33.792 0-21.76 10.2912-33.4336 22.528-33.4336 6.8096 0 13.824 2.1248 20.4032 8.1664v47.7952c-6.4 8.1664-12.8 11.264-20.4032 11.264zM358.4 737.152v-150.5792h23.296l2.1504 11.264h0.5888c9.1392-7.7824 20.4032-14.0032 32.0768-14.0032 26.8032 0 42.752 21.9648 42.752 55.3984 0 37.2992-22.3744 58.88-46.2592 58.88-9.5232 0-18.6624-4.3008-27.008-11.8528l0.9728 17.8688v33.024H358.4z m48.1792-62.5664c-5.8112 0-12.8-2.1248-19.6096-8.1664v-47.7952c7.3728-7.5776 13.9776-11.264 21.376-11.264 14.9504 0 21.5552 11.4688 21.5552 32.256 0 23.7056-10.112 34.9696-23.296 34.9696z" fill="#DD5151"></path></svg>