<svg t="1608617558432" class="icon" viewBox="0 0 1024 1024" version="1.1" xmlns="http://www.w3.org/2000/svg" width="200" height="200"><path d="M558.976 128H195.7632v384H153.6v256h42.1632v128h624.0512v-128H870.4V512h-50.6112v-120.064L558.976 128zM280.0896 768H735.488v42.6752H280.0896V768z m219.2128-554.6752l0.0512 238.9504h236.1088V512H280.0896V213.3248h219.2128z m84.3776 153.6l-0.0512-93.2608 92.16 93.2608H583.68z m-242.0992 343.3728v-150.5792h23.296l2.1504 11.264h0.5888c9.1392-7.7568 20.4032-13.9776 32.0512-13.9776 26.8288 0 42.752 21.9648 42.752 55.3728 0 37.2992-22.3488 58.88-46.2336 58.88-9.5232 0-18.688-4.2752-27.008-11.8528l0.9728 17.8688v33.024h-28.5696z m48.1792-62.5664c-5.8368 0-12.8-2.1248-19.6096-8.1408v-47.8208c7.3728-7.5776 13.9776-11.264 21.3504-11.264 14.976 0 21.5808 11.4688 21.5808 32.256 0 23.7056-10.112 34.9696-23.296 34.9696z m79.488 20.8128v-108.8h23.296l2.1504 14.336h0.5888c9.5232-9.3184 20.5824-17.0752 35.3536-17.0752 23.5008 0 33.6128 16.3072 33.6128 43.7248v67.7888h-28.5696v-64.3072c0-16.896-4.6592-22.7328-15.36-22.7328-8.9088 0-14.5664 4.2752-22.528 12.2368v74.8032H469.248z m224.6144 8.5504c0 21.9392-22.912 38.656-59.264 38.656-25.6512 0-45.4656-8.7552-45.4656-27.9808 0-9.1392 5.632-16.896 15.5392-22.528v-0.9728a20.6336 20.6336 0 0 1-9.9072-18.2784c0-8.1664 5.632-15.744 12.2624-20.4032v-0.768a35.6608 35.6608 0 0 1-14.592-28.5696c0-25.4464 20.8128-39.2448 43.9296-39.2448a51.2 51.2 0 0 1 16.3072 2.7136h39.2704v20.992h-18.4832c2.7392 3.6864 4.864 9.728 4.864 16.512 0 24.4736-18.6624 36.9152-41.984 36.9152-4.2496 0-9.3184-0.9728-13.9776-2.5344-2.9184 2.56-4.6592 4.864-4.6592 9.344 0 5.8368 4.2752 8.9344 17.1008 8.9344h18.4576c26.24 0 40.6016 8.1664 40.6016 27.2128zM619.264 596.224c0 13.0304 7.5776 20.224 17.1008 20.224 9.5232 0 17.1008-7.1936 17.1008-20.224 0-12.6208-7.3984-19.8144-17.1008-19.8144-9.728 0-17.1008 7.168-17.1008 19.8144z m-6.2208 87.04c0 9.1392 10.112 14.3872 25.856 14.3872 16.3072 0 27.5712-7.168 27.5712-15.744 0-7.7568-6.4-9.728-18.0736-9.728h-13.2096c-6.6048 0-11.264-0.5632-15.1552-1.536-4.864 3.8912-6.9888 8.1664-6.9888 12.6208z" fill="#2E7791"></path></svg>