<svg t="1607741750125" class="icon" viewBox="0 0 1024 1024" version="1.1" xmlns="http://www.w3.org/2000/svg" width="200" height="200"><path d="M0 0h1024v1024H0z" fill="#000000" opacity=".01"></path><path d="M921.6 256H102.4v512h819.2V256z m-372.4288 251.136c0 61.44-34.56 99.072-84.736 99.072s-84.736-37.632-84.736-99.072c0-61.696 34.56-97.536 84.736-97.536s84.736 36.096 84.736 97.536z m-130.816 0c0 40.448 17.92 66.304 46.08 66.304s46.08-25.856 46.08-66.304c0-40.704-17.92-65.024-46.08-65.024s-46.08 24.32-46.08 65.024z m-165.504 95.488h-37.888v-189.696h62.208c41.984 0 74.24 14.848 74.24 59.648 0 43.264-32.512 62.72-73.216 62.72h-25.344v67.328z m0-159.488v62.208h22.784c26.112 0 38.656-11.008 38.656-32.768 0-22.016-13.824-29.44-39.936-29.44h-21.504z m393.344 163.072c-25.344 0-50.688-9.984-69.12-27.648l21.76-26.112c13.568 12.544 31.488 20.992 48.128 20.992 19.712 0 30.208-8.448 30.208-21.76 0-13.568-10.7264-18.0992-26.624-24.832l-1.792-0.768-25.344-10.752c-19.2-7.936-38.4-23.296-38.4-50.944 0-30.976 27.136-54.784 65.536-54.784 22.016 0 44.032 8.704 59.392 24.32l-19.2 23.808c-12.032-9.984-24.576-15.616-40.192-15.616-16.64 0-27.136 7.424-27.136 19.968 0 13.1584 12.544 18.1504 28.032 24.2688l1.408 0.5632 24.832 10.496c23.04 9.472 38.144 24.064 38.144 51.456 0 30.976-25.856 57.344-69.632 57.344z m176.128-3.584h-37.888v-157.952h-53.248v-31.744h144.896v31.744h-53.76v157.952z" fill="#28917E"></path></svg>