<?xml version="1.0" standalone="no"?><!DOCTYPE svg PUBLIC "-//W3C//DTD SVG 1.1//EN" "http://www.w3.org/Graphics/SVG/1.1/DTD/svg11.dtd"><svg t="1645167459513" class="icon" viewBox="0 0 1024 1024" version="1.1" xmlns="http://www.w3.org/2000/svg" p-id="60881" xmlns:xlink="http://www.w3.org/1999/xlink" width="200" height="200"><defs><style type="text/css"></style></defs><path d="M870.4 128H153.6v768h716.8V128zM230.4 204.8h563.2v614.4H230.4V204.8z" fill="#42668D" p-id="60882"></path><path d="M598.656 257.28c15.1808-2.304 46.976-1.408 62.72 1.792a180.6336 180.6336 0 0 1 34.7648 11.9552c13.8496 6.912 24.4224 14.7456 36.5312 27.0336 12.928 13.1328 17.4592 22.1696 19.3792 38.6304 2.816 24.1664-2.9952 62.464-15.5648 102.528-10.5216 33.4848-30.0032 76.8256-48.6912 108.3136-4.48 7.6032-7.8336 14.1568-7.552 14.848 0.256 0.7168 2.7904 1.9968 5.5808 2.8416 6.6048 2.048 23.4752 1.9456 36.3008-0.1536 5.0688-0.8448 12.8512-1.7152 17.3056-1.9712 7.168-0.384 8.3968-0.2304 11.1104 1.4592 15.744 9.7024-10.8288 36.6848-44.544 45.2352-12.7232 3.2-23.9104 4.224-39.3728 3.584-7.7568-0.3584-13.9776-0.256-14.2336 0.1792-0.256 0.4096-2.0992 13.7472-4.0704 29.6448-7.0656 57.2672-9.2928 70.272-14.0288 82.5344-5.76 14.9248-15.3856 25.4976-29.2864 32.2304-24.7552 11.9296-52.7104 13.3888-68.352 3.5072-12.3648-7.7824-22.144-21.7088-26.4704-37.6832-3.5072-13.0048-5.9904-47.872-5.9904-84.352 0-12.8-0.3328-19.6608-0.9472-20.0448-0.512-0.3072-3.2768 1.0752-6.144 3.072-12.928 9.0624-24.4992 12.4928-42.112 12.4928-14.1312 0-22.1184-1.4848-31.104-5.8112-15.104-7.2192-18.688-18.432-8.3456-25.9072 3.7376-2.7136 11.008-5.248 25.8048-8.9856 9.1136-2.304 10.752-4.1984 5.12-5.9648a179.1744 179.1744 0 0 1-11.5968-4.608c-5.504-2.3808-8.6016-3.3024-9.3696-2.7648-0.64 0.4608-8.2688 8.96-16.9472 18.8928-21.8624 24.96-26.9568 28.4416-40.4736 27.8016-6.4512-0.3072-8.3456-0.768-12.928-3.2256-28.7744-15.36-59.3664-87.6032-79.3344-187.3664-6.6048-32.9984-7.3984-40.2944-6.912-63.5904 0.512-23.168 1.792-32.2048 6.4-46.1824 12.3136-37.1712 38.784-58.4192 79.104-63.488 10.7008-1.3312 39.168-0.6144 50.4832 1.3056a313.344 313.344 0 0 1 38.3488 8.96c17.92 5.504 15.616 5.4272 23.552 0.8704 22.528-12.9536 51.0464-16.4608 86.3488-10.5984 8.448 1.408 8.9088 1.3824 14.8224-0.3072 8.4992-2.4832 21.3504-5.2736 30.6944-6.6816z m64.128 43.1104c-7.808-2.4576-15.9488-4.1216-16.64-3.4304-0.256 0.256 2.816 3.84 6.8096 7.9872 8.448 8.7552 13.056 14.72 20.8128 26.8032 15.7696 24.4992 21.8624 41.856 20.6336 58.7776-0.3072 4.352-1.536 13.6192-2.7136 20.6336a252.8256 252.8256 0 0 0-2.688 21.5296c-0.5632 9.6256 0.2048 17.792 1.5616 16.4352 1.4336-1.408 9.4208-25.8048 13.056-39.8848 8.5248-32.7424 11.4432-60.16 7.8592-73.7792-1.2032-4.608-13.2096-16.5632-23.04-22.9376a95.104 95.104 0 0 0-25.6512-12.1344z m-116.4032 3.0208c-23.1424-3.84-40.8832-2.9184-53.8112 2.816-2.56 1.1008-9.6768 5.0688-15.872 8.7552-6.144 3.6864-11.776 6.7072-12.416 6.7072-1.9968 0-10.368 6.7072-14.4384 11.5968a57.9328 57.9328 0 0 0-6.016 8.9344c-2.4064 4.7104-8.5248 31.232-7.4752 32.256 0.3584 0.384 3.2-0.1024 6.3488-1.024 12.4928-3.712 29.0304-4.608 39.424-2.176 18.4832 4.352 31.3344 17.4848 37.2736 38.144 3.84 13.3632 4.5568 21.2224 4.5312 50.4064-0.0256 24.9344-0.1792 27.8016-1.9456 34.7392a233.9072 233.9072 0 0 1-16.6144 45.9776l-3.968 8.064 2.6624 4.7104c3.3792 5.9904 5.376 13.6704 5.376 20.608v5.376l4.096 1.024c14.72 3.712 26.752 17.0752 29.2608 32.5376 0.512 3.1488 0.9472 13.9776 0.9472 24.1152 0.0512 33.8944 2.176 66.9184 4.9408 76.7232 1.7152 6.144 5.1712 11.6736 8.4992 13.6448 4.7872 2.816 18.56 0.5376 30.2592-4.992 6.4768-3.072 8.832-6.4 11.5712-16.5376 1.8944-7.04 6.4-37.9648 10.1888-70.144 3.2-27.2128 4.2752-32.7168 7.8848-40.0384 3.7376-7.5776 11.8784-15.616 18.9952-18.7392l4.8128-2.0992-0.256-11.392c-0.256-11.0592-0.3328-11.52-3.2512-16.6912a1701.8112 1701.8112 0 0 1-26.4192-52.6848 431.488 431.488 0 0 1-18.2272-43.6224c-3.328-9.856-3.6608-11.6736-3.9936-21.7088-0.4096-12.9536 1.024-21.2736 5.1456-29.6704 7.168-14.592 28.8-29.952 47.1552-33.536a23.0144 23.0144 0 0 0 5.504-1.408c0-1.024-3.5072-6.912-9.0624-15.2064a128.2816 128.2816 0 0 0-14.592-17.6128c-9.6768-9.6768-27.8528-23.552-33.8944-25.8304-4.5568-1.7408-12.4416-2.048-24.192-0.9216-5.9648 0.5888-9.6512 0.3584-18.432-1.1008z m-142.6432 1.536c-12.9536-2.4064-40.3456-3.072-49.2544-1.2544-19.9168 4.1472-30.4384 11.6736-37.888 27.136-6.8096 14.08-8.8064 26.9568-8.1408 52.608 0.3328 13.4912 0.896 18.432 3.6352 32.9728 11.1104 58.9312 28.416 116.352 44.4928 147.8912 4.608 9.0112 11.3408 19.6096 12.4672 19.6096 0.8448 0 4.8128-4.352 19.1488-21.0432 6.4-7.4752 12.4416-14.464 13.4144-15.5136 1.7152-1.92 1.7152-1.92-0.0768-4.864a108.288 108.288 0 0 1-10.3424-23.2192c-3.328-11.2128-3.6352-22.9376-1.28-48.9216 1.1776-12.5952 2.2528-33.3824 2.688-51.7376 0.7936-32.9472 1.3312-38.1696 6.6816-63.7952 4.48-21.504 7.5008-29.5424 15.4368-41.216l3.4304-5.0688-2.304-0.8704a124.3648 124.3648 0 0 0-12.1088-2.7136z m248.6528 100.4544c0.768-1.92-4.6848-1.6128-8.9088 0.4864-5.8112 2.8672-12.2112 8.192-13.8496 11.4176-3.1232 6.1952-1.6384 15.616 5.0432 31.9488 7.6032 18.56 16.5376 37.7088 18.048 38.656 1.3824 0.8448 0.6656-10.9312-1.4848-24.576a247.2448 247.2448 0 0 1-1.9456-22.3744l-0.5888-13.568-2.1248 4.1472c-2.3808 4.608-3.2256 4.864-8.5248 2.4576-6.2208-2.816-7.2192-6.912-2.7136-11.136 4.7872-4.48 6.9888-5.5808 11.264-5.5808h4.096l0.6144-5.2992c0.3328-2.944 0.8192-5.888 1.1008-6.5792z m-177.2032 5.12c-6.2208-3.072-25.8304 0.6656-39.2192 7.4752l-3.5584 1.8176-0.5632 16.4864c-0.3072 9.088-1.1776 23.2192-1.92 31.4112-2.432 26.7776-2.56 32.7424-0.9728 38.9376 2.5344 9.8048 2.048 9.3696 19.328 17.3824 8.6272 3.9936 16 7.2704 16.384 7.2704 3.328 0 16.9984-35.4048 19.3536-50.176 1.4592-9.1648 0.5888-45.9264-1.28-55.0144-1.6896-8.0384-4.6336-14.1824-7.552-15.616z m-24.4992 7.4752c-1.5616 0.64-2.688 2.3808-2.688 4.4032 0 12.8 10.5216 16.5376 13.312 17.92 6.0928 3.0464 9.5232-0.4352 13.312-3.7376 5.4272-4.7616 6.4768-11.1104 2.304-14.1312-4.736-3.456-20.9408-6.5536-26.2144-4.4544z" fill="#42668D" p-id="60883"></path></svg>
