<svg t="1608617754302" class="icon" viewBox="0 0 1024 1024" version="1.1" xmlns="http://www.w3.org/2000/svg"  width="200" height="200"><path d="M558.976 128H195.7632v384H153.6v256h42.1632v128h624.0512v-128H870.4V512h-50.6112v-120.064L558.976 128zM280.0896 768H735.488v42.6752H280.0896V768z m219.2128-554.6752l0.0512 238.9504h236.1088V512H280.0896V213.3248h219.2128z m84.3776 153.6l-0.0512-93.2608 92.16 93.2608H583.68z m99.8656 326.8608c-5.8112 1.9456-13.3888 4.096-22.912 4.096-25.856 0-35.7632-16.512-35.7632-40.8064v-48.2048h-15.36v-21.1712l16.9216-1.3568 3.3024-29.3376h23.7056v29.3376h26.8032v22.528h-26.8032v48.2048c0 12.416 5.0432 18.2528 14.7712 18.2528 3.4816 0 7.7568-1.152 10.6752-2.304l4.6848 20.7616z m-312.576 43.136v-150.5792h23.3216l2.1504 11.264h0.5632c9.1392-7.7568 20.4032-13.9776 32.0768-13.9776 26.8032 0 42.752 21.9392 42.752 55.3728 0 37.2992-22.3488 58.88-46.2592 58.88-9.5232 0-18.6624-4.2752-27.008-11.8528l0.9728 17.8688v33.024h-28.5696z m48.2048-62.5664c-5.8368 0-12.8256-2.1248-19.6352-8.1664v-47.7952c7.3728-7.5776 14.0032-11.264 21.376-11.264 14.9504 0 21.5552 11.4688 21.5552 32.256 0 23.7056-10.0864 34.9696-23.296 34.9696z m79.4624 62.5664v-150.5792h23.296l2.1504 11.264h0.5888c9.1392-7.7568 20.4032-13.9776 32.0512-13.9776 26.8288 0 42.752 21.9392 42.752 55.3728 0 37.2992-22.3488 58.88-46.2336 58.88-9.5232 0-18.6624-4.2752-27.008-11.8528l0.9728 17.8688v33.024h-28.5696z m48.1792-62.5664c-5.8112 0-12.8-2.1248-19.6096-8.1664v-47.7952c7.3728-7.5776 13.9776-11.264 21.376-11.264 14.9504 0 21.5552 11.4688 21.5552 32.256 0 23.7056-10.112 34.9696-23.296 34.9696z" fill="#D95B08" ></path></svg>