<?xml version="1.0" standalone="no"?><!DOCTYPE svg PUBLIC "-//W3C//DTD SVG 1.1//EN" "http://www.w3.org/Graphics/SVG/1.1/DTD/svg11.dtd"><svg t="1619747580955" class="icon" viewBox="0 0 1024 1024" version="1.1" xmlns="http://www.w3.org/2000/svg" p-id="16431" xmlns:xlink="http://www.w3.org/1999/xlink" width="200" height="200"><defs><style type="text/css"></style></defs><path d="M195.7632 128h363.2128l260.8128 263.936V512H870.4v256h-50.6112v128H195.7632v-128H153.6V512h42.1632V128zM735.488 768H280.0896v42.6752H735.488V768z m-236.1088-315.7248l-0.0512-238.9504h-219.2128V512H735.488v-59.7248h-236.1088z m84.2752-178.6112l0.0512 93.2608h92.1344l-92.16-93.2608z m-165.9648 466.4832v-38.1184l-1.152-20.6336c9.856 8.7552 20.6336 13.6704 31.8464 13.6704 28.16 0 54.528-24.8832 54.528-67.9424 0-38.5792-18.7904-63.9232-50.4064-63.9232-13.7472 0-27.0336 7.168-37.7856 16.128h-0.6912l-2.5088-12.9792H384v173.824h33.664z m0-81.6384c8.0128 6.9632 16.256 9.4208 23.1424 9.4208 15.5648 0 27.4688-13.0048 27.4688-40.3712 0-23.9872-7.7824-37.2224-25.4208-37.2224-8.704 0-16.4864 4.2752-25.1904 13.0048v55.168z m176.768 37.248L640 566.3488h-32.3072L590.08 624.64l-4.5824 17.7152-4.608 17.7408h-1.1264c-1.2032-3.9424-2.3296-7.8848-3.4816-11.8272-2.3552-8.0896-4.6592-16.0512-7.2704-23.6032l-20.4032-58.3168h-33.8944l49.92 123.3408-2.2784 7.424c-3.6608 10.9824-11.008 19.0464-24.064 19.0464-2.9696 0-6.6304-0.896-8.9088-1.5616l-6.1952 25.344c5.0432 1.5616 10.0864 2.4576 17.664 2.4576 28.5952 0 42.3424-17.0496 53.5808-46.6432z" fill="#3C78AA" p-id="16432"></path></svg>