<svg t="1608617779781" class="icon" viewBox="0 0 1024 1024" version="1.1" xmlns="http://www.w3.org/2000/svg"  width="200" height="200"><path d="M195.7632 128h363.2128l260.8128 263.936V512H870.4v256h-50.6112v128H195.7632v-128H153.6V512h42.1632V128zM735.488 768H280.0896v42.6752H735.488V768z m-236.1088-315.7248l-0.0512-238.9504h-219.2128V512H735.488v-59.7248h-236.1088z m84.2752-178.6112l0.0512 93.2608h92.1344l-92.16-93.2608z m28.5952 455.8336v-90.9312h21.504v-23.7568h-21.504v-9.8304c0-12.6976 4.9152-18.0224 13.9264-18.0224 3.6864 0 8.192 0.8192 12.0832 2.4576l5.5296-22.3232A65.4336 65.4336 0 0 0 622.08 563.2c-28.8768 0-39.936 18.432-39.936 42.3936v9.4208l-15.36 1.2288v22.3232h15.36v90.9312h30.1056z m-126.6688 2.8672c11.8784 0 23.3472-6.5536 31.744-14.7456h0.8192l2.2528 11.8784h24.3712v-163.4304H514.816v40.3456l1.024 18.0224c-8.192-7.5776-16.1792-12.4928-29.0816-12.4928-24.7808 0-48.128 22.9376-48.128 60.2112 0 37.6832 18.432 60.2112 46.8992 60.2112z m7.7824-24.7808c-15.1552 0-23.7568-11.8784-23.7568-35.6352 0-22.9376 10.8544-35.2256 23.7568-35.2256 7.168 0 14.5408 2.2528 21.504 8.6016v50.3808c-6.7584 8.6016-13.5168 11.8784-21.504 11.8784zM358.4 729.4976h30.1056v-68.4032c6.3488-16.5888 17.2032-22.528 26.2144-22.528 4.7104 0 7.9872 0.6144 12.0832 1.8432l5.12-26.0096a32.4352 32.4352 0 0 0-13.5168-2.4576c-11.8784 0-24.1664 8.192-32.5632 23.1424h-0.6144l-2.2528-20.2752H358.4v114.688z" fill="#478CF0" ></path></svg>