<?xml version="1.0" standalone="no"?><!DOCTYPE svg PUBLIC "-//W3C//DTD SVG 1.1//EN" "http://www.w3.org/Graphics/SVG/1.1/DTD/svg11.dtd"><svg t="1627027343333" class="icon" viewBox="0 0 1024 1024" version="1.1" xmlns="http://www.w3.org/2000/svg" p-id="6330" xmlns:xlink="http://www.w3.org/1999/xlink" width="200" height="200"><defs><style type="text/css">@font-face { font-family: feedback-iconfont; src: url("//at.alicdn.com/t/font_1031158_1uhr8ri0pk5.eot?#iefix") format("embedded-opentype"), url("//at.alicdn.com/t/font_1031158_1uhr8ri0pk5.woff2") format("woff2"), url("//at.alicdn.com/t/font_1031158_1uhr8ri0pk5.woff") format("woff"), url("//at.alicdn.com/t/font_1031158_1uhr8ri0pk5.ttf") format("truetype"), url("//at.alicdn.com/t/font_1031158_1uhr8ri0pk5.svg#iconfont") format("svg"); }
</style></defs><path d="M644.7104 102.4H379.2896v118.272c-20.224 9.2672-39.3728 20.5312-57.088 33.5872L216.576 194.6624 82.944 420.7616l110.3872 62.2592a323.4816 323.4816 0 0 0 0 58.0608L82.944 603.3408l133.632 226.1504 105.8816-59.7504c17.6128 13.0048 36.6592 24.2176 56.832 33.4336V921.6h265.4208v-118.4768c20.1728-9.216 39.2192-20.48 56.832-33.4848l105.9328 59.7504 133.5808-226.0992-110.3872-62.3104a324.096 324.096 0 0 0 0-58.0608l110.336-62.2592L807.424 194.56l-105.6768 59.5968a319.6928 319.6928 0 0 0-56.9856-33.4848V102.4zM481.6896 293.1712V204.8h60.6208v88.3712l35.6864 11.3664a217.344 217.344 0 0 1 83.0464 48.896l27.4432 25.8048 81.8176-46.1312 29.3888 49.7152-82.7392 46.6944 7.8336 36.8128a218.7776 218.7776 0 0 1 0 91.3408l-7.8848 36.7616 82.8416 46.7456-29.3888 49.7664-81.92-46.2336-27.4432 25.8048c-23.4496 22.016-51.712 38.912-82.9952 48.7936l-35.6864 11.3664v88.576H481.6896v-88.576l-35.6864-11.3152a217.3952 217.3952 0 0 1-82.944-48.8448l-27.4432-25.8048-81.92 46.2336-29.44-49.7152 82.8416-46.7456-7.8848-36.8128a218.624 218.624 0 0 1 0-91.2896l7.7824-36.7616-82.7392-46.6944 29.3888-49.7664 81.8176 46.1824 27.4432-25.856a217.344 217.344 0 0 1 83.0976-48.9472l35.6864-11.3664zM473.6 512a38.4 38.4 0 1 1 76.8512 0.0512A38.4 38.4 0 0 1 473.6 512zM512 371.2A140.8 140.8 0 1 0 512 652.8512 140.8 140.8 0 0 0 512 371.2z" p-id="6331"></path></svg>