<svg t="1607327519417" class="icon" viewBox="0 0 1024 1024" version="1.1" xmlns="http://www.w3.org/2000/svg" width="200" height="200"><path d="M512 366.933333a145.109333 145.109333 0 0 0 0 290.133334 145.109333 145.109333 0 0 0 0-290.133334z m0 85.333334a59.776 59.776 0 0 1 0 119.466666 59.776 59.776 0 0 1 0-119.466666z"  ></path><path d="M437.077333 135.381333l-33.365333 6.613334-2.432 85.418666-12.288 5.12-62.037333-58.709333L298.666667 192.725333a383.232 383.232 0 0 0-105.941334 105.984l-18.901333 28.288L232.533333 389.034667l-5.12 12.288-85.418666 2.346666-6.613334 33.408a384.298667 384.298667 0 0 0 0 149.845334l6.613334 33.365333 85.418666 2.389333 5.12 12.245334-58.709333 62.122666 18.901333 28.288A383.701333 383.701333 0 0 0 298.666667 831.274667l28.330666 18.944 62.037334-58.794667 12.288 5.12 2.432 85.461333 33.365333 6.613334c49.493333 9.813333 100.394667 9.813333 149.845333 0l33.365334-6.613334 2.389333-85.461333 12.288-5.12 62.08 58.794667 28.330667-18.944A384.170667 384.170667 0 0 0 831.274667 725.333333l18.858666-28.288-58.666666-62.08 5.034666-12.288 85.504-2.389333 6.613334-33.365333c9.813333-49.493333 9.813333-100.394667 0-149.845334l-6.613334-33.408-85.461333-2.346666-5.077333-12.288 58.709333-62.037334L831.274667 298.666667A383.701333 383.701333 0 0 0 725.333333 192.725333l-28.288-18.901333-62.08 58.666667-12.288-5.077334-2.389333-85.418666-33.365333-6.613334a384.298667 384.298667 0 0 0-149.845334 0z m89.557334 78.293334l10.282666 0.768 2.133334 76.885333 30.592 8.32c18.090667 4.949333 35.456 12.16 51.669333 21.461333l27.52 15.786667 55.936-52.949333 7.808 6.826666c7.253333 6.528 14.122667 13.44 20.693333 20.650667l6.741334 7.765333-52.821334 55.936 15.701334 27.52c9.344 16.213333 16.512 33.664 21.461333 51.712l8.277333 30.634667 76.885334 2.048 0.810666 10.325333c0.426667 9.770667 0.426667 19.498667 0 29.269334l-0.810666 10.282666-76.885334 2.133334-8.277333 30.592c-4.906667 18.090667-12.117333 35.413333-21.461333 51.712l-15.701334 27.52 52.821334 55.850666-6.741334 7.850667c-6.528 7.253333-13.44 14.122667-20.650666 20.693333l-7.850667 6.741334-55.893333-52.906667-27.562667 15.786667c-16.213333 9.301333-33.578667 16.512-51.669333 21.461333l-30.549334 8.32-2.176 76.842667-10.282666 0.810666a298.965333 298.965333 0 0 1-29.269334 0l-10.325333-0.810666-2.133333-76.842667-30.549334-8.32a220.629333 220.629333 0 0 1-51.754666-21.461333l-27.52-15.786667-55.893334 52.906667-7.765333-6.741334a298.325333 298.325333 0 0 1-20.693333-20.650666l-6.784-7.850667 52.906666-55.936-15.786666-27.52a219.178667 219.178667 0 0 1-21.418667-51.626667l-8.277333-30.592-76.928-2.176-0.768-10.282666a298.965333 298.965333 0 0 1 0-29.269334l0.768-10.325333 76.928-2.048 8.277333-30.634667c4.949333-18.090667 12.16-35.456 21.461333-51.669333l15.786667-27.52-52.906667-55.936 6.741334-7.808c6.570667-7.253333 13.482667-14.165333 20.693333-20.693333l7.765333-6.741334 55.893334 52.906667 27.52-15.786667a220.629333 220.629333 0 0 1 51.754666-21.461333l30.549334-8.32 2.133333-76.885333 10.325333-0.768c9.770667-0.426667 19.498667-0.426667 29.269334 0z"></path></svg>