<?xml version="1.0" standalone="no"?><!DOCTYPE svg PUBLIC "-//W3C//DTD SVG 1.1//EN" "http://www.w3.org/Graphics/SVG/1.1/DTD/svg11.dtd"><svg t="1627969920503" class="icon" viewBox="0 0 1024 1024" version="1.1" xmlns="http://www.w3.org/2000/svg" p-id="5869" xmlns:xlink="http://www.w3.org/1999/xlink" width="200" height="200"><defs><style type="text/css"></style></defs><path d="M487.936 198.7584a120.4736 120.4736 0 1 0 0 240.9472 120.4736 120.4736 0 0 0 0-240.9472zM271.0016 319.232a216.832 216.832 0 1 1 433.664 0 216.832 216.832 0 0 1-433.664 0z m48.1792 385.536a120.4736 120.4736 0 0 0-120.4736 120.4736v84.3264H102.4v-84.3264a216.832 216.832 0 0 1 216.832-216.8832h265.0624v96.4096H319.232z m501.1456 72.2944a43.3664 43.3664 0 1 0-86.7328 0 43.3664 43.3664 0 0 0 86.7328 0z m-71.5264-141.824a144.64 144.64 0 0 1 56.3712 0l0.9728 34.4064c9.1136 2.5088 17.92 6.144 26.112 10.8544l25.088-23.6544c15.7184 10.5472 29.2864 24.064 39.8336 39.8848l-23.6544 25.0368c4.7104 8.192 8.3456 16.9984 10.8032 26.112l34.4576 0.9728c3.6864 18.5856 3.6864 37.7856 0 56.3712l-34.4576 0.9728c-2.4576 9.1648-6.144 17.92-10.8032 26.112l23.6544 25.088c-10.5472 15.7696-24.064 29.2864-39.8848 39.8336l-25.0368-23.6544c-8.192 4.7104-16.9984 8.3456-26.112 10.8032l-0.9728 34.4576a144.64 144.64 0 0 1-56.3712 0l-0.9728-34.4576a111.4112 111.4112 0 0 1-26.112-10.8032l-25.088 23.6544a144.384 144.384 0 0 1-39.8336-39.8848l23.6544-25.0368a111.104 111.104 0 0 1-10.8544-26.112l-34.4064-0.9728a144.64 144.64 0 0 1 0-56.3712l34.4064-0.9728c2.5088-9.1136 6.144-17.92 10.8544-26.112l-23.6544-25.0368c10.5472-15.7696 24.064-29.3376 39.8848-39.8848l24.9856 23.6544a111.616 111.616 0 0 1 26.1632-10.8544l0.9728-34.4064z" p-id="5870"></path></svg>