<svg t="1608617798057" class="icon" viewBox="0 0 1024 1024" version="1.1" xmlns="http://www.w3.org/2000/svg"  width="200" height="200"><path d="M195.7632 128h363.2128l260.8128 263.936V512H870.4v256h-50.6112v128H195.7632v-128H153.6V512h42.1632V128zM735.488 768H280.0896v42.6752H735.488V768z m-236.1088-315.7248l-0.0512-238.9504h-219.2128V512H735.488v-59.7248h-236.1088z m84.2752-178.6112l0.0512 93.2608h92.1344l-92.16-93.2608zM437.8624 711.68c10.0352 0 18.0224-2.2528 24.1664-4.3008l-4.9152-21.9136c-3.072 1.2288-7.5776 2.4576-11.264 2.4576-10.24 0-15.5648-6.144-15.5648-19.2512v-50.7904h28.2624v-23.7568h-28.2624V563.2h-24.9856l-3.4816 30.9248-17.8176 1.4336v22.3232h16.1792v50.7904c0 25.6 10.4448 43.008 37.6832 43.008z m28.1088-2.8672h31.1296l10.6496-21.0944c1.3312-2.7392 2.6112-5.4528 3.8912-8.192 1.92-3.9936 3.7888-7.9616 5.7344-11.8784h1.024c1.8432 3.2768 3.6864 6.656 5.5296 10.0352 1.8432 3.3792 3.6864 6.7584 5.5296 10.0352l12.6976 21.0944h32.3584l-35.84-56.32 33.5872-58.368h-31.1296l-9.6256 20.2752c-1.4848 3.6864-3.1232 7.3728-4.736 11.008-1.2544 2.8416-2.4832 5.6576-3.6608 8.448h-0.8192a582.5536 582.5536 0 0 1-10.24-19.456l-11.4688-20.2752H468.224l33.5872 54.8864-35.84 59.8016z m187.648-1.4336l-4.9152-21.9136c-3.072 1.2288-7.5776 2.4576-11.264 2.4576-10.24 0-15.5648-6.144-15.5648-19.2512v-50.7904h28.2624v-23.7568h-28.2624V563.2h-24.9856l-3.4816 30.9248-17.8176 1.4336v22.3232h16.1792v50.7904c0 25.6 10.4448 43.008 37.6832 43.008 10.0352 0 18.0224-2.2528 24.1664-4.3008z" fill="#395291" ></path></svg>