<svg t="1608276845636" class="icon" viewBox="0 0 1024 1024" version="1.1" xmlns="http://www.w3.org/2000/svg" width="200" height="200"><path d="M558.976 128H195.7632v384H153.6v256h42.1632v128h624.0512v-128H870.4V512h-50.6112v-120.064L558.976 128zM280.0896 768H735.488v42.6752H280.0896V768z m219.2128-554.6752l0.0512 238.9504h236.1088V512H280.0896V213.3248h219.2128z m84.3776 153.6l-0.0512-93.2608 92.16 93.2608H583.68z m-70.2208 294.016h-25.088c-2.432-17.9712 7.936-28.0064 17.2032-36.9664 6.8608-6.6304 13.1328-12.672 13.1328-20.9408 0-10.496-6.6048-16.7168-17.664-16.7168-9.344 0-16.9216 4.096-24.32 12.2368L460.8 583.808c10.88-12.4416 25.4464-20.608 43.3408-20.608 24.2688 0 41.984 12.6208 41.984 37.2992 0 14.5664-8.7552 22.7584-17.2288 30.6688-8.6016 8.064-16.896 15.872-15.4368 29.7728z m4.6592 34.56c0 10.1376-7.168 17.1264-17.1008 17.1264a16.4352 16.4352 0 0 1-17.1008-17.1008c0-10.2912 7.3984-17.3056 17.1008-17.3056 9.9072 0 17.1008 7.0144 17.1008 17.3056z" fill="#B7B7B7"></path></svg>