<svg class="icon" viewBox="0 0 1024 1024" version="1.1" xmlns="http://www.w3.org/2000/svg" xmlns:xlink="http://www.w3.org/1999/xlink" width="1024" height="1024"><defs><style type="text/css"></style></defs><path d="M512 102.4a230.4 230.4 0 1 0 0 460.8 230.4 230.4 0 0 0 0-460.8z m0 102.4a128 128 0 1 1 0 256 128 128 0 0 1 0-256z m358.144 629.1456A230.4 230.4 0 0 0 640 614.4h-256l-10.8544 0.256A230.4 230.4 0 0 0 153.6 844.8v89.6h102.4V844.8l0.256-8.3968A128 128 0 0 1 384 716.8h256l8.3968 0.256A128 128 0 0 1 768 844.8v89.6h102.4V844.8l-0.256-10.8544z" ></path></svg>