<svg t="1599733179655" class="icon" viewBox="0 0 1024 1024" version="1.1" xmlns="http://www.w3.org/2000/svg" width="200" height="200"><path d="M512 512m-487.619048 0a487.619048 487.619048 0 1 0 975.238096 0 487.619048 487.619048 0 1 0-975.238096 0Z" fill="#3C6DF0"></path><path d="M515.608381 185.295238l2.145524 0.048762h1.706666a48.128 48.128 0 0 1 5.461334 0.682667c0.341333 0 0.585143 0.146286 0.877714 0.195047l1.609143 0.390096c0.877714 0.146286 1.80419 0.341333 2.633143 0.585142l2.389333 0.828953 1.511619 0.536381 0.877714 0.341333a42.130286 42.130286 0 0 1 4.583619 2.194286l0.48762 0.292571 77.33638 44.909714-2.82819-1.462857-3.023238-1.267809-1.560381-0.536381a50.566095 50.566095 0 0 0-4.973714-1.462857l-1.609143-0.341334a49.93219 49.93219 0 0 0-6.729143-0.877714h-1.316571a56.612571 56.612571 0 0 0-13.409524 1.121524 71.875048 71.875048 0 0 0-14.140953 4.144762l-3.608381 1.462857c-3.754667 1.609143-7.558095 3.413333-11.459047 5.705143-5.851429 3.413333-11.556571 7.41181-17.066667 11.849143-1.852952 1.462857-3.559619 3.072-5.363809 4.632381-3.85219 3.413333-7.704381 6.826667-11.410286 10.727619l-3.023238 3.218285a208.457143 208.457143 0 0 0-27.209143 37.059048l-0.341333 0.585143a216.941714 216.941714 0 0 0-18.822096 43.056762l-0.585143 1.852952a175.396571 175.396571 0 0 0-5.12 23.113143 137.411048 137.411048 0 0 0-1.706666 20.772571l0.243809 74.654477c0 24.429714 7.460571 42.715429 19.748572 53.443047l14.726095 8.484572-151.015619 140.580571 0.438857 157.988572-77.433905-45.007239L268.190476 631.808l150.284191-139.946667-7.216762-4.242285c-14.628571-8.484571-24.380952-25.697524-26.233905-49.932191l-0.292571-8.338286-0.24381-74.703238c0-5.851429 0.390095-11.702857 1.170286-17.749333l0.487619-3.023238c0.195048-1.121524 0.438857-2.194286 0.585143-3.31581 0.341333-2.048 0.633905-4.144762 1.072762-6.241523 0.78019-3.462095 1.609143-6.972952 2.584381-10.435048 0.24381-1.024 0.633905-2.048 0.975238-3.120762l0.487619-1.852952 1.365333-4.291048a217.86819 217.86819 0 0 1 6.339048-16.676571l0.243809-0.487619 0.195048-0.390096a267.605333 267.605333 0 0 1 7.119238-14.726095l3.608381-6.485333 0.341333-0.585143 0.341333-0.585143a204.946286 204.946286 0 0 1 9.947429-15.603809l2.438095-3.218286c0.341333-0.585143 0.78019-1.121524 1.219048-1.657905 0.78019-1.121524 1.560381-2.243048 2.389333-3.267048 2.389333-3.072 4.87619-6.095238 7.41181-9.020952l3.462095-3.705905 3.023238-3.218285c1.170286-1.219048 2.243048-2.486857 3.413333-3.657143 2.584381-2.535619 5.36381-4.729905 8.045715-7.070476 1.755429-1.511619 3.462095-3.169524 5.266285-4.632381 5.558857-4.388571 11.215238-8.43581 17.164191-11.849143 3.900952-2.243048 7.655619-4.096 11.410286-5.705143l0.682666-0.341333 0.633905-0.341334 2.243048-0.731428c2.194286-0.877714 4.33981-1.609143 6.436571-2.243048l2.048-0.682667 1.950476-0.487619 3.754667-0.731428c0.78019-0.146286 1.560381-0.390095 2.291809-0.487619 0.877714-0.146286 1.706667-0.146286 2.53562-0.292572l2.730666-0.243809 1.511619-0.146286c1.462857-0.097524 2.925714 0 4.33981 0z m168.277333 206.555429l77.433905 44.958476-151.893333 34.816-77.433905-44.958476 151.893333-34.816z" fill="#E0E8FC"></path><path d="M643.803429 294.619429l0.243809 74.703238c0.097524 33.304381-13.507048 70.89981-34.620952 102.302476l151.893333-34.816 0.487619 157.988571-415.744 240.006096-0.487619-157.988572 151.015619-140.580571c-20.821333-7.070476-34.377143-28.867048-34.425905-61.927619l-0.243809-74.654477c-0.146286-57.636571 40.374857-127.853714 90.697143-156.867047 50.224762-29.013333 91.038476-5.802667 91.184762 51.833905z m-80.213334 237.958095l-31.110095 113.176381 31.451429 18.041905 30.47619-53.784381-30.817524-77.482667z" fill="#FFFFFF"></path></svg>