<svg t="1607513450921" class="icon" viewBox="0 0 1024 1024" version="1.1" xmlns="http://www.w3.org/2000/svg" width="200" height="200"><path d="M409.6 102.4a204.8 204.8 0 1 0 0 409.6 204.8 204.8 0 0 0 0-409.6z m0 102.4a102.4 102.4 0 1 1 0 204.8 102.4 102.4 0 0 1 0-204.8z m358.144 536.3712C762.1632 640.7168 671.5392 563.2 563.2 563.2H256l-10.4448 0.256C138.4448 568.32 51.2 649.1136 51.2 750.9504V870.4h102.4v-119.4496l0.3072-6.8096C158.1056 701.3888 201.0624 665.6 256 665.6h307.2l8.5504 0.3072c53.6064 3.6864 93.8496 41.6256 93.8496 84.992V870.4h102.4v-119.4496l-0.256-9.7792z m64.512-176.2816c79.5648 20.992 135.8336 91.8528 140.288 174.1824l0.256 10.3424V819.2h-102.4v-69.7344c0-37.8368-23.1936-70.912-56.8832-83.2512l-7.3728-2.304 26.112-99.0208zM819.2 307.2c0-94.0544-55.9104-177.92-138.9568-202.6496l-29.2864 98.0992 6.5024 2.304C691.712 218.88 716.8 259.3792 716.8 307.2c0 50.7904-28.416 93.3888-65.8432 104.5504l29.2864 98.0992 9.4208-3.072C767.488 478.5664 819.2 397.568 819.2 307.2z"></path></svg>