<svg t="1608617639997" class="icon" viewBox="0 0 1024 1024" version="1.1" xmlns="http://www.w3.org/2000/svg" width="200" height="200"><path d="M558.976 128H195.7632v384H153.6v256h42.1632v128h624.0512v-128H870.4V512h-50.6112v-120.064L558.976 128zM280.0896 768H735.488v42.6752H280.0896V768z m219.2128-554.6752l0.0512 238.9504h236.1088V512H280.0896V213.3248h219.2128z m84.3776 153.6l-0.0512-93.2608 92.16 93.2608H583.68z m146.4064 333.8752c-7.9616 7.7568-18.8672 13.9776-30.1312 13.9776-27.008 0-44.4928-21.376-44.4928-57.1392 0-35.328 22.144-57.1136 45.6704-57.1136 12.2368 0 19.8144 4.6592 27.5712 11.8528l-0.9472-17.1008v-38.272h28.3648v155.0592h-23.1424l-2.1248-11.264h-0.768z m-45.2864-43.3408c0 22.528 8.1664 33.792 22.528 33.792 7.6032 0 14.0032-3.072 20.4288-11.264v-47.7952a29.3376 29.3376 0 0 0-20.4032-8.1664c-12.2624 0-22.528 11.6736-22.528 33.4336z m-134.6048 0.2048c0 36.1216-25.0624 57.1136-52.2496 57.1136-27.2128 0-52.2752-20.992-52.2752-57.1392 0-36.1216 25.0624-57.1136 52.2752-57.1136 27.1872 0 52.2496 20.992 52.2496 57.1392z m-75.392 0c0 20.5824 8.3712 33.792 23.1424 33.792 14.7456 0 23.1168-13.2096 23.1168-33.792 0-20.4288-8.3456-33.8176-23.1168-33.8176s-23.1424 13.3888-23.1424 33.792z m-140.4672 54.4h-32.64l-28.16-108.8H302.08l11.8528 53.6064c1.28 6.3488 2.2784 12.544 3.2768 18.816 0.6912 4.3008 1.3824 8.6272 2.176 13.056h0.768l0.8448-4.3008c1.8176-9.3696 3.584-18.4576 5.9648-27.5712l13.2096-53.632h25.2672l13.5936 53.632c1.6384 6.9632 3.0464 13.7728 4.4544 20.6848l2.3552 11.1872h0.9728c0.9216-5.1456 1.7408-10.1888 2.56-15.1808 0.9216-5.5552 1.8432-11.0592 2.8672-16.6912l11.8528-53.632h26.4192l-26.8032 108.8h-33.6128l-11.4688-47.3856a658.3296 658.3296 0 0 1-5.1968-26.112l-1.024-5.5552h-0.9728l-1.8176 10.1376c-1.3312 7.4752-2.56 14.5152-4.1984 21.504l-11.0848 47.4368z m242.3808 0v-108.8h23.296l2.1504 19.2h0.5888c7.9616-14.1568 19.6352-21.9392 30.8992-21.9392 6.016 0 9.5232 0.9728 12.8 2.3296l-4.8384 24.6784a36.3776 36.3776 0 0 0-11.4688-1.7408c-8.5504 0-18.8416 5.632-24.8576 21.376v64.896h-28.5696z" fill="#2A62B8"></path></svg>