<svg t="1608617813040" class="icon" viewBox="0 0 1024 1024" version="1.1" xmlns="http://www.w3.org/2000/svg"  width="200" height="200"><path d="M195.7632 128h363.2128l260.8128 263.936V512H870.4v256h-50.6112v128H195.7632v-128H153.6V512h42.1632V128zM735.488 768H280.0896v42.6752H735.488V768z m-236.1088-315.7248l-0.0512-238.9504h-219.2128V512H735.488v-59.7248h-236.1088z m84.2752-178.6112l0.0512 93.2608h92.1344l-92.16-93.2608z m118.2976 453.1712l-3.6864-22.3232a16.9728 16.9728 0 0 1-4.096 0.4096c-2.8672 0-5.9392-2.2528-5.9392-9.216V563.2h-30.1056v131.2768c0 21.2992 7.3728 35.0208 28.2624 35.0208 7.168 0 12.0832-1.2288 15.5648-2.6624z m-241.2288-0.2048h30.1056v-78.848c7.9872-8.6016 15.36-12.9024 21.9136-12.9024 10.8544 0 16.1792 6.144 16.1792 23.9616v67.7888h29.9008v-78.848c8.192-8.6016 15.5648-12.9024 22.1184-12.9024 10.8544 0 15.9744 6.144 15.9744 23.9616v67.7888h30.1056v-71.4752c0-28.8768-11.264-46.08-35.6352-46.08-14.9504 0-26.0096 9.0112-36.4544 20.0704-5.5296-12.6976-15.1552-20.0704-31.5392-20.0704-14.9504 0-25.6 8.192-35.2256 18.2272h-0.6144l-2.2528-15.36h-24.576v114.688z m-127.8976 0h31.1296l10.6496-21.0944c1.3312-2.7392 2.6112-5.4528 3.8912-8.192 1.8944-3.9936 3.7888-7.9616 5.7344-11.8784h1.024c1.8432 3.2768 3.6864 6.656 5.5296 10.0352 1.8432 3.3792 3.6864 6.7584 5.5296 10.0352l12.6976 21.0944h32.3584l-35.84-56.32 33.5872-58.368h-31.1296l-9.6256 20.2752c-1.4848 3.6864-3.1232 7.3728-4.736 11.008-1.2544 2.8416-2.5088 5.6576-3.6608 8.448H389.12a582.5536 582.5536 0 0 1-10.24-19.456l-11.4688-20.2752h-32.3584l33.5872 54.8864-35.84 59.8016z" fill="#DD5151" ></path></svg>