<svg t="1607067119586" class="icon" viewBox="0 0 1024 1024" version="1.1" xmlns="http://www.w3.org/2000/svg" width="200" height="200"><path d="M514.986667 190.464c69.845333-66.474667 182.229333-66.474667 252.074666 0a168.32 168.32 0 0 1 6.613334 239.146667l-6.656 6.656-314.026667 298.752a113.408 113.408 0 0 1-155.434667 0 105.472 105.472 0 0 1-5.290666-148.394667l5.333333-5.418667 289.792-275.626666 58.794667 61.781333-289.749334 275.626667a20.224 20.224 0 0 0 0 30.250666 28.245333 28.245333 0 0 0 34.133334 2.858667l3.626666-2.901333 314.026667-298.709334a83.114667 83.114667 0 0 0 0-122.197333c-35.072-33.365333-91.52-35.029333-128.682667-5.034667l-5.674666 5.034667-313.685334 298.752c-62.378667 59.392-62.378667 154.794667 0 214.186667 61.269333 58.368 160 60.458667 224 6.229333l6.912-6.229333 313.685334-298.752 58.88 61.781333-313.685334 298.752c-96.512 91.904-252.16 91.904-348.672 0-95.104-90.581333-97.578667-236.8-7.509333-330.325333l7.509333-7.466667 313.685334-298.752z"></path></svg>