<?xml version="1.0" encoding="UTF-8"?>
<svg width="127px" height="147px" viewBox="0 0 127 147" version="1.1" xmlns="http://www.w3.org/2000/svg" xmlns:xlink="http://www.w3.org/1999/xlink">
    <!-- Generator: Sketch 60.1 (88133) - https://sketch.com -->
    <title>编组 18</title>
    <desc>Created with Sketch.</desc>
    <g id="登录注册" stroke="none" stroke-width="1" fill="none" fill-rule="evenodd">
        <g id="登录页2" transform="translate(-120.000000, -488.000000)">
            <g id="编组-28" transform="translate(40.000000, 40.000000)">
                <g id="编组-19" transform="translate(81.000000, 449.000000)">
                    <g id="编组-18">
                        <g id="编组-14" transform="translate(16.800000, 18.666667)" fill-rule="nonzero">
                            <g id="资源-1">
                                <polygon id="路径" fill="#FCFDFF" points="93.1065728 26.9220657 46.7816901 53.8408451 0.151173709 26.9220657 46.4760563 0"></polygon>
                                <polygon id="路径" fill="#E2E4EA" points="93.1065728 26.9220657 92.9521127 80.5 46.6305164 107.422066 46.7816901 53.8408451"></polygon>
                                <polygon id="路径" fill="#ECEEF3" points="46.7816901 53.8408451 46.6305164 107.422066 0 80.5 0.151173709 26.9220657"></polygon>
                            </g>
                            <g id="资源-1备份" transform="translate(19.635897, 22.435897)">
                                <polygon id="路径" fill="#FCFDFF" points="27.4859486 63.5451697 -4.44393434e-14 47.6781316 27.3057954 31.8091563 54.791744 47.6781316"></polygon>
                                <polygon id="路径" fill="#E2E4EA" points="27.3038583 31.8091563 0 47.6781316 0.0891080157 16.0951514 27.3949034 0.228113227"></polygon>
                                <polygon id="路径" fill="#ECEEF3" points="54.791744 47.6781316 27.3057954 31.8091563 27.3949034 0.228113227 54.880852 16.0951514"></polygon>
                            </g>
                            <g id="资源-1备份-2" transform="translate(19.643077, 8.364103)">
                                <polygon id="路径" fill="#81A4FF" points="54.9153309 15.878945 27.5923806 31.7559517 0.0891639979 15.878945 27.4121143 0"></polygon>
                                <polygon id="路径" fill="#3B6EF0" points="54.9153309 15.878945 54.8242286 47.4798289 27.5032166 63.3587739 27.5923806 31.7559517"></polygon>
                                <polygon id="路径" fill="#5484FD" points="27.5923806 31.7559517 27.5032166 63.3587739 0 47.4798289 0.0891639979 15.878945"></polygon>
                            </g>
                        </g>
                        <g id="资源-5" opacity="0.697439" stroke="#FFFFFF" stroke-dasharray="2" stroke-width="0.25">
                            <path d="M125.596268,108.768169 L63.0576761,145.112958 L0.110915493,108.772606" id="路径"></path>
                            <path d="M125.800352,36.4379577 L63.2617606,72.7827465 L0.315,36.4379577 L62.8535915,0.0976056338 L125.800352,36.4379577 L125.800352,36.4379577 Z" id="路径"></path>
                            <path d="M125.800352,36.4379577 L125.596268,108.768169 L63.0576761,145.112958 L63.2617606,72.7827465 L125.800352,36.4379577 L125.800352,36.4379577 Z" id="路径"></path>
                            <path d="M63.2617606,72.7827465 L63.0576761,145.112958 L0.110915493,108.772606 L0.315,36.4379577 L63.2617606,72.7827465 L63.2617606,72.7827465 Z" id="路径"></path>
                            <line x1="16.4613787" y1="99.3646129" x2="0.110915493" y2="108.772606" id="路径"></line>
                            <path d="M62.8129247,17.4181691 L62.8535915,0.0976056338 L125.800352,36.4379577 L125.596268,108.768169 L110.133333,99.7632258" id="路径"></path>
                        </g>
                    </g>
                </g>
            </g>
        </g>
    </g>
</svg>