<?xml version="1.0" encoding="UTF-8"?>
<svg width="125px" height="144px" viewBox="0 0 125 144" version="1.1" xmlns="http://www.w3.org/2000/svg" xmlns:xlink="http://www.w3.org/1999/xlink">
    <!-- Generator: Sketch 60.1 (88133) - https://sketch.com -->
    <title>编组 19备份</title>
    <desc>Created with Sketch.</desc>
    <defs>
        <radialGradient cx="67.1865046%" cy="-13.0917915%" fx="67.1865046%" fy="-13.0917915%" r="176.251396%" gradientTransform="translate(0.671865,-0.130918),scale(0.322293,1.000000),rotate(96.879758),translate(-0.671865,0.130918)" id="radialGradient-1">
            <stop stop-color="#FCFDFF" offset="0%"></stop>
            <stop stop-color="#ECEEF3" offset="42.8510319%"></stop>
            <stop stop-color="#C4C7D0" offset="100%"></stop>
        </radialGradient>
        <radialGradient cx="67.0334227%" cy="30.6727799%" fx="67.0334227%" fy="30.6727799%" r="86.850208%" gradientTransform="translate(0.670334,0.306728),scale(0.952096,1.000000),rotate(136.316164),translate(-0.670334,-0.306728)" id="radialGradient-2">
            <stop stop-color="#81A4FF" offset="0%"></stop>
            <stop stop-color="#5484FD" offset="42.8510319%"></stop>
            <stop stop-color="#2F5DD3" offset="100%"></stop>
        </radialGradient>
        <radialGradient cx="62.0461296%" cy="50%" fx="62.0461296%" fy="50%" r="120.352638%" gradientTransform="translate(0.620461,0.500000),scale(0.577154,1.000000),rotate(144.085260),translate(-0.620461,-0.500000)" id="radialGradient-3">
            <stop stop-color="#FCFDFF" offset="0%"></stop>
            <stop stop-color="#ECEEF3" offset="42.8510319%"></stop>
            <stop stop-color="#C4C7D0" offset="100%"></stop>
        </radialGradient>
    </defs>
    <g id="登录注册" stroke="none" stroke-width="1" fill="none" fill-rule="evenodd">
        <g id="登录页2" transform="translate(-294.000000, -488.000000)">
            <g id="编组-28" transform="translate(40.000000, 40.000000)">
                <g id="编组-19" transform="translate(81.000000, 449.000000)">
                    <g id="编组-19备份" transform="translate(174.000000, 0.000000)">
                        <g id="编组-22" transform="translate(12.400000, 21.938462)">
                            <g id="编组-21" transform="translate(10.219524, 73.744098)">
                                <path d="M39.3804756,25.4559016 C55.3654179,25.4559016 69.5842435,17.8942571 78.6550635,6.15285708 C85.1288669,-2.22692724 -6.2737861,-1.9717857 0.342933585,6.45724894 C9.42334843,18.0247831 23.5340967,25.4559016 39.3804756,25.4559016 Z" id="椭圆形备份-2" fill="url(#radialGradient-1)"></path>
                                <path d="M78.6550635,6.15285708 C85.1288669,-2.22692724 -6.2737861,-1.9717857 0.342933585,6.45724894 C9.42334843,18.0247831 69.5842435,17.8942571 78.6550635,6.15285708 Z" id="椭圆形备份-2" fill="#FCFDFF"></path>
                            </g>
                            <ellipse id="椭圆形备份" fill="url(#radialGradient-2)" cx="50.8521386" cy="54.2362932" rx="28.9136771" ry="27.5286009"></ellipse>
                            <path d="M20.1917969,47.6923077 C7.94460979,49.6164091 4.74423919e-14,52.711728 4.74423919e-14,56.2023593 C4.74423919e-14,62.0382813 22.2066764,66.7692308 49.6,66.7692308 C76.9933236,66.7692308 99.2,62.0382813 99.2,56.2023593 C99.2,52.7684924 91.5116784,49.7171853 79.6022621,47.7871023" id="路径" stroke="#C7CAD3" stroke-width="0.5" opacity="0.502881" stroke-dasharray="2"></path>
                            <path d="M99.2872408,43.0092529 C96.0633482,18.7315862 75.2795272,2.10102021e-13 50.1207098,2.10102021e-13 C24.9610773,2.10102021e-13 4.17672472,18.7327999 0.953846154,43.0116125 C0.866683438,43.6695234 10.5302104,49.6603726 23.101272,53.4210444 C31.3299816,55.8826883 40.3813662,56.7574628 50.2320701,56.7529228 C60.6796565,56.7481496 70.7182279,56.1612368 79.3211088,53.4210444 C90.8139448,49.7603427 99.3678879,43.6196477 99.2872408,43.0092529 Z" id="椭圆形备份-2" fill="url(#radialGradient-3)"></path>
                        </g>
                        <g id="资源-5备份" opacity="0.7" stroke="#FFFFFF" stroke-dasharray="2" stroke-width="0.25">
                            <path d="M123.602676,107.04169 L62.0567606,142.809577 L0.10915493,107.046056" id="路径"></path>
                            <path d="M123.803521,35.8595775 L62.2576056,71.6274648 L0.31,35.8595775 L61.8559155,0.096056338 L123.803521,35.8595775 L123.803521,35.8595775 Z" id="路径"></path>
                            <path d="M123.803521,35.8595775 L123.602676,107.04169 L62.0567606,142.809577 L62.2576056,71.6274648 L123.803521,35.8595775 L123.803521,35.8595775 Z" id="路径"></path>
                            <path d="M62.2576056,71.6274648 L62.0567606,142.809577 L0.10915493,107.046056 L0.31,35.8595775 L62.2576056,71.6274648 L62.2576056,71.6274648 Z" id="路径"></path>
                            <path d="M30.9825352,88.7076923 L0.10915493,107.046056 L0.31,35.8595775 L61.8559155,0.096056338 L61.8158941,21.1918417" id="路径"></path>
                            <line x1="123.602676" y1="107.04169" x2="90.481294" y2="88.7076923" id="路径"></line>
                        </g>
                    </g>
                </g>
            </g>
        </g>
    </g>
</svg>