<?xml version="1.0" encoding="UTF-8"?>
<svg width="125px" height="144px" viewBox="0 0 125 144" version="1.1" xmlns="http://www.w3.org/2000/svg" xmlns:xlink="http://www.w3.org/1999/xlink">
    <!-- Generator: Sketch 60.1 (88133) - https://sketch.com -->
    <title>编组 20</title>
    <desc>Created with Sketch.</desc>
    <g id="登录注册" stroke="none" stroke-width="1" fill="none" fill-rule="evenodd">
        <g id="登录页2" transform="translate(-466.000000, -488.000000)">
            <g id="编组-28" transform="translate(40.000000, 40.000000)">
                <g id="编组-19" transform="translate(81.000000, 449.000000)">
                    <g id="编组-20" transform="translate(346.000000, 0.000000)">
                        <g id="编组-13" transform="translate(5.511111, 19.288889)">
                            <g id="编组-12">
                                <g id="编组-17">
                                    <polygon id="三角形" fill="#E2E4EA" points="95.9846441 50.0237524 113.896296 75.611827 56.8730236 104.22304 56.896522 69.8266674"></polygon>
                                    <polygon id="三角形" fill="#ECEEF3" points="56.9244469 69.8600697 56.8730236 104.22304 0 75.611827 17.8642496 50.0914704"></polygon>
                                    <polygon id="路径-2" fill="#FCFDFF" points="56.9481481 69.8600697 17.8642496 50.0914704 55.595697 30.6275755 95.9846441 50.0237524"></polygon>
                                    <g id="编组-12备份" transform="translate(22.964150, 0.000000)">
                                        <polygon id="三角形" fill="#3B6EF0" points="33.8794746 8.5585854e-15 66.9317331 37.7740098 33.9063487 55.5791819"></polygon>
                                        <polygon id="三角形" fill="#5484FD" points="33.8794746 0 33.9063487 55.5791819 0.827216044 37.7740098"></polygon>
                                    </g>
                                </g>
                            </g>
                        </g>
                        <g id="资源-5备份-2" opacity="0.7" stroke="#FFFFFF" stroke-dasharray="2" stroke-width="0.25">
                            <path d="M110.628906,99.5516881 L123.602676,107.04169 L62.0567606,142.809577 L0.10915493,107.046056 L13.2533987,99.4071769" id="路径"></path>
                            <path d="M123.803521,35.8595775 L62.2576056,71.6274648 L0.31,35.8595775 L61.8559155,0.096056338 L123.803521,35.8595775 L123.803521,35.8595775 Z" id="路径"></path>
                            <path d="M123.803521,35.8595775 L123.602676,107.04169 L62.0567606,142.809577 L62.2576056,71.6274648 L123.803521,35.8595775 L123.803521,35.8595775 Z" id="路径"></path>
                            <path d="M62.2576056,71.6274648 L62.0567606,142.809577 L0.10915493,107.046056 L0.31,35.8595775 L62.2576056,71.6274648 L62.2576056,71.6274648 Z" id="路径"></path>
                            <path d="M13.2613004,99.4025847 L0.10915493,107.046056 L0.31,35.8595775 L61.8559155,0.096056338" id="路径"></path>
                            <path d="M61.8158941,18.0955363 L61.8559155,0.096056338 L123.803521,35.8595775 L123.602676,107.04169 L110.679508,99.5809015" id="路径"></path>
                        </g>
                    </g>
                </g>
            </g>
        </g>
    </g>
</svg>