<?xml version="1.0" encoding="UTF-8"?>
<svg width="120px" height="26px" viewBox="0 0 120 26" version="1.1" xmlns="http://www.w3.org/2000/svg" xmlns:xlink="http://www.w3.org/1999/xlink">
    <!-- Generator: Sketch 60.1 (88133) - https://sketch.com -->
    <title>Rectangle Copy 171 (1)</title>
    <desc>Created with Sketch.</desc>
    <g id="登录注册" stroke="none" stroke-width="1" fill="none" fill-rule="evenodd">
        <g id="登录页2" transform="translate(-40.000000, -40.000000)" fill="#FFFFFF" fill-rule="nonzero">
            <g id="编组-28" transform="translate(40.000000, 40.000000)">
                <g id="Rectangle-Copy-171-(1)">
                    <g id="BlocFace">
                        <path d="M11.8965517,1.42108547e-14 L11.8965517,25.862069 L-2.13162821e-14,25.862069 L-2.13162821e-14,11.8965517 C-2.13162821e-14,5.39197047 5.22027491,0.106649754 11.6998205,0.00159379804 L11.8965517,1.42108547e-14 Z M25.862069,13.9655172 C25.862069,20.4700985 20.6417941,25.7554192 14.1622485,25.8604752 L13.9655172,25.862069 L13.9655172,13.9655172 L25.862069,13.9655172 Z M25.862069,0 L25.862069,11.8965517 L13.9655172,11.8965517 L13.9655172,0 L25.862069,0 Z M5.94992816,7.46021219 C5.11951725,7.46021219 4.44633621,8.13564468 4.44633621,8.9688329 C4.44633621,9.80202109 5.11951725,10.4774536 5.94992816,10.4774536 C6.78033908,10.4774536 7.45352012,9.80202109 7.45352012,8.9688329 C7.45352012,8.13564468 6.78033908,7.46021219 5.94992816,7.46021219 Z" id="形状结合"></path>
                    </g>
                    <g id="blocface英文名称" transform="translate(32.068966, 5.689655)">
                        <path d="M37.2702587,3.12043738 C39.1913043,3.12043738 40.6448426,3.84999864 41.6129286,5.30298323 L41.7544984,5.52635581 L41.8257579,5.65884078 L39.8158376,7.13439546 L39.7218709,7.00207893 L39.5825684,6.83054506 C38.9826127,6.1352558 38.2158222,5.78984501 37.2702587,5.78984501 C36.7628408,5.78984501 36.3129799,5.916657 35.9169471,6.1703805 C35.5200926,6.42463019 35.2081306,6.78500359 34.9798779,7.25462434 C34.7495726,7.72846805 34.6272272,8.27632753 34.613746,8.89269572 C34.6272336,9.52254561 34.749608,10.0736664 34.9798779,10.5474373 C35.2081306,11.017058 35.5200926,11.3774314 35.9169471,11.631681 C36.3129799,11.8854046 36.7628408,12.0122166 37.2702587,12.0122166 C38.2038468,12.0122166 38.9674668,11.6707651 39.571754,10.9823035 L39.7195125,10.8029556 L39.8158376,10.6789955 L41.8257579,12.1059105 L41.7525142,12.2789112 L41.6062182,12.5091263 C40.6378164,13.9558881 39.1863264,14.6816242 37.2702587,14.6816242 C36.1272962,14.6816242 35.1096052,14.4423255 34.2195321,13.9629822 C33.327449,13.4825564 32.628307,12.8043289 32.1246,11.9306338 C31.6720779,11.1457202 31.4147788,10.2533367 31.3521903,9.25310801 L31.3386861,8.87946308 L31.3545494,8.51080702 C31.4209849,7.52725828 31.6775584,6.64683522 32.1246,5.87142778 C32.628307,4.99773272 33.327449,4.31950526 34.2195321,3.83907941 C35.1096052,3.35973613 36.1272962,3.12043738 37.2702587,3.12043738 Z M71.771767,3.12043738 C73.6928123,3.12043738 75.1463509,3.84999864 76.1144366,5.30298323 L76.2560064,5.52635581 L76.3429195,5.66587603 L74.324857,7.15444218 L74.2233786,7.00207893 L74.0840765,6.83054506 C73.4841207,6.1352558 72.7173303,5.78984501 71.771767,5.78984501 C71.2643488,5.78984501 70.8144879,5.916657 70.4184551,6.1703805 C70.0216006,6.42463019 69.7096389,6.78500359 69.4813859,7.25462434 C69.2510806,7.72846805 69.1287352,8.27632753 69.1152543,8.89269572 C69.1287416,9.52254561 69.251116,10.0736664 69.4813859,10.5474373 C69.7096389,11.017058 70.0216006,11.3774314 70.4184551,11.631681 C70.8144879,11.8854046 71.2643488,12.0122166 71.771767,12.0122166 C72.7053548,12.0122166 73.4689748,11.6707651 74.073262,10.9823035 L74.2210205,10.8029556 L74.324857,10.6603999 L76.3429195,12.1189696 L76.2540225,12.2789112 L76.1077265,12.5091263 C75.1393244,13.9558881 73.6878347,14.6816242 71.771767,14.6816242 C70.6288045,14.6816242 69.6111132,14.4423255 68.7210401,13.9629822 C67.828957,13.4825564 67.129815,12.8043289 66.626108,11.9306338 C66.1735859,11.1457202 65.9162868,10.2533367 65.8536983,9.25310801 L65.8401941,8.87946308 L65.8560574,8.51080702 C65.9224929,7.52725828 66.1790664,6.64683522 66.626108,5.87142778 C67.129815,4.99773272 67.828957,4.31950526 68.7210401,3.83907941 C69.6111132,3.35973613 70.6288045,3.12043738 71.771767,3.12043738 Z M24.4256684,3.12043738 C25.5756463,3.12043738 26.5951629,3.35974402 27.4818709,3.83920841 C28.3707903,4.31986854 29.0631548,4.99851771 29.55636,5.87273043 C30.0487479,6.74549428 30.2945485,7.7509214 30.2945485,8.88635793 C30.2945485,10.0282794 30.0487712,11.036962 29.55636,11.9097672 C29.0632272,12.7838517 28.3710101,13.46404 27.4822839,13.9479561 C26.59548,14.4308256 25.5758091,14.6718422 24.4256684,14.6718422 C23.2755982,14.6718422 22.2542674,14.4308569 21.3640558,13.9480863 C20.4717546,13.4641826 19.7776943,12.7839546 19.2845034,11.9097672 C18.7920923,11.036962 18.5463149,10.0282794 18.5463149,8.88635793 C18.5463149,7.7509214 18.7921156,6.74549428 19.2845034,5.87273043 C19.7777666,4.99841491 20.4719745,4.31972643 21.3644683,3.83907941 C22.2545838,3.35971319 23.2757608,3.12043738 24.4256684,3.12043738 Z M59.0319106,3.13021929 C60.2625331,3.13021929 61.2671123,3.31887199 62.0455627,3.69922976 C62.8326859,4.08382521 63.412597,4.67329014 63.7807841,5.46318941 C64.1078646,6.16489976 64.2895389,7.04284226 64.3277868,8.09775838 L64.3352266,8.45595279 L64.3352266,14.4370758 L60.9552476,14.4370758 L60.9553148,13.2375862 L60.934291,13.2694696 C60.7643925,13.5109227 60.5511553,13.7266944 60.2951809,13.9167055 L60.0951959,14.0543825 L59.8792412,14.1823917 C59.2853097,14.5090974 58.590128,14.6718422 57.7960482,14.6718422 C57.0050338,14.6718422 56.319758,14.5333656 55.7415256,14.254846 C55.1576475,13.973607 54.70908,13.5632752 54.399449,13.0262105 C54.0914167,12.4919195 53.9380627,11.8610283 53.9380627,11.1362031 C53.9380627,10.4832649 54.1265198,9.89137244 54.5021413,9.36513918 C54.8743055,8.84374932 55.4095841,8.40820945 56.1055852,8.05792378 C56.795063,7.71092087 57.6154565,7.46160548 58.5668744,7.30908424 C58.8781544,7.25980821 59.1688854,7.21974212 59.4391099,7.18889325 L59.9170666,7.14144949 L60.7858634,7.07620459 L60.782099,7.06170359 C60.688402,6.7443674 60.5555325,6.48667014 60.3841179,6.28693456 L60.2766486,6.17403517 L60.1599587,6.07496609 C59.8350825,5.8280595 59.3660361,5.7018076 58.7491285,5.7018076 C58.2988322,5.7018076 57.8130983,5.75132734 57.2920063,5.85058619 C56.9007683,5.92511015 56.5113564,6.02580688 56.1237393,6.15270269 L55.7367189,6.28833251 L55.5629747,6.35324188 L55.0624459,4.06895087 L55.0298897,3.92267506 L55.5389845,3.75065237 C56.0476014,3.58084516 56.5874915,3.44183408 57.1586276,3.33356392 C57.8730817,3.19812502 58.4972884,3.13021929 59.0319106,3.13021929 Z M82.5874997,3.13024699 C83.6661499,3.15026227 84.6022389,3.37134613 85.3939544,3.79484635 C86.189273,4.22027426 86.8053103,4.8260993 87.2392865,5.60972726 C87.6713638,6.38992474 87.9010728,7.3117891 87.9297021,8.37496366 C87.9353718,8.70855497 87.9229435,9.08559422 87.8924783,9.50625817 L87.8662484,9.97651337 L87.7060135,9.97651337 L80.6953306,9.97725546 L80.6969201,10.0078603 C80.7473452,10.4533628 80.9085745,10.8208844 81.1825037,11.1152214 L81.3068066,11.2368992 L81.4449437,11.3496994 C81.9388257,11.718719 82.5823782,11.9046153 83.3804951,11.9046153 C84.4258301,11.9046153 85.4050404,11.703095 86.3195672,11.2999533 L86.6594853,11.139324 L86.8442183,11.046061 L87.3984065,13.5208683 L87.2918418,13.5951752 L86.964314,13.7769481 C86.4126186,14.0680879 85.8612566,14.2833298 85.310318,14.4224012 C84.6512602,14.588765 83.9485565,14.6718422 83.2024469,14.6718422 C81.9700857,14.6718422 80.9167109,14.4463466 80.0439357,13.9934836 C79.1668122,13.538365 78.4972415,12.8791965 78.0384957,12.0189072 C77.5821021,11.1630272 77.3511734,10.1381188 77.344043,8.94602258 C77.3369191,7.76834263 77.5442684,6.73994224 77.9674655,5.86233809 C78.3929374,4.98001787 79.0045177,4.30065835 79.8001828,3.82775465 C80.5150045,3.40290065 81.3393706,3.17235623 82.2710134,3.13537981 L82.5874997,3.13024699 Z M16.2036224,0.00554278267 L16.2036224,14.5245235 L12.8341169,14.5245235 L12.8341169,0.00554278267 L16.2036224,0.00554278267 Z M5.57562471,-2.84217094e-14 L5.87849941,0.00713659717 C6.57956661,0.0405363259 7.22720894,0.191205357 7.8203641,0.459361984 C8.5010311,0.767081408 9.04139216,1.19020149 9.43879482,1.72822102 C9.83964605,2.27090931 10.0410679,2.87497575 10.0410679,3.53563927 C10.0410679,4.30847211 9.86378105,4.97592122 9.50790815,5.53445237 C9.28553641,5.88345784 9.02521885,6.16879024 8.72744281,6.38944254 L8.54428616,6.51406425 L8.41036624,6.59037246 L8.58841415,6.65867069 C8.8104719,6.75213455 9.02307078,6.86745305 9.22610868,7.00452538 L9.42595565,7.14884529 L9.61940589,7.30764535 C10.0624564,7.69431034 10.4095512,8.15936286 10.6598916,8.70153647 C10.9105673,9.24443659 11.0360419,9.81849993 11.0360419,10.4221218 C11.0360419,11.1302704 10.846158,11.7936175 10.4675717,12.4090025 C10.0894976,13.0235547 9.56065934,13.5157806 8.8835911,13.8843795 C8.29111852,14.2069242 7.63148051,14.3881738 6.90633031,14.4284464 L6.59154548,14.4370758 L0,14.4370758 L0,-2.84217094e-14 L5.57562471,-2.84217094e-14 Z M52.935967,-2.84217094e-14 L52.935967,2.99221151 L46.8929935,2.99328391 L46.8929935,5.77207234 L52.3075624,5.77134184 L52.3075624,8.61682428 L46.8929935,8.61735442 L46.8928091,14.4370758 L43.4080963,14.4370758 L43.4080963,-2.84217094e-14 L52.935967,-2.84217094e-14 Z M60.9553148,9.31875442 L60.4191455,9.34404701 C60.2112261,9.35617862 60.0295733,9.36950421 59.87427,9.3840091 C59.5643074,9.41295895 59.2191409,9.45970373 58.8407141,9.5239553 C58.3669559,9.60999303 57.9902545,9.78590858 57.7068595,10.0505932 C57.432577,10.3067671 57.2970949,10.625986 57.2970949,11.0188198 C57.2970949,11.4074424 57.4101672,11.704284 57.635101,11.9200452 C57.8610044,12.1367364 58.1840609,12.246983 58.6129743,12.246983 C59.201903,12.246983 59.7068653,12.0953897 60.1326375,11.7925549 C60.4969562,11.5334295 60.7507911,11.2225802 60.8932839,10.8859331 L60.9552476,10.7155798 L60.9553148,9.31875442 Z M24.4256684,5.92679211 C23.9320754,5.92679211 23.4961055,6.04879549 23.1140536,6.2927805 C22.731214,6.53726853 22.4334271,6.87957799 22.2192305,7.32277668 C22.0033641,7.76943028 21.8948735,8.29009893 21.8948735,8.88635793 C21.8948735,9.4828403 22.003449,10.0070365 22.2196051,10.4605014 C22.4338548,10.9099671 22.7315483,11.2552246 23.1140536,11.4994991 C23.4961055,11.7434842 23.9320754,11.8654876 24.4256684,11.8654876 C24.9190983,11.8654876 25.3531206,11.7435726 25.7315184,11.4998379 C26.1107377,11.2555742 26.4069003,10.9101944 26.6212585,10.4605014 C26.8374145,10.0070365 26.9459899,9.4828403 26.9459899,8.88635793 C26.9459899,8.28998656 26.8374569,7.76755353 26.6214442,7.31749358 C26.4072326,6.87118598 26.1112872,6.52911391 25.7322922,6.28804609 C25.3537482,6.0472651 24.9194305,5.92679211 24.4256684,5.92679211 Z M4.94722001,8.50922307 L3.48555091,8.51010662 L3.48555091,11.5924061 L5.37534572,11.5915984 C6.16174797,11.5853208 6.72949102,11.4508235 7.07810959,11.1969137 C7.41426225,10.9520831 7.58274897,10.5723908 7.58274897,10.0406263 C7.58274897,9.51483158 7.38538764,9.14045343 6.98449353,8.896641 C6.60614894,8.66654253 6.01739961,8.53681272 5.22054339,8.51316781 L4.94722001,8.50922307 Z M82.6578292,5.93657403 C82.2579631,5.93657403 81.9109867,6.01834828 81.6145071,6.18087978 C81.3201274,6.34225994 81.0925257,6.56970093 80.9291902,6.86582922 C80.7976128,7.10438268 80.7184378,7.37183537 80.6920309,7.66947375 L80.6888953,7.73792304 L84.6077273,7.73792304 L84.6061029,7.69954601 C84.5758495,7.24727553 84.4397633,6.87655472 84.1985641,6.58276748 L84.0887609,6.46155543 C83.7401201,6.11203402 83.2664488,5.93657403 82.6578292,5.93657403 Z M4.93674662,2.84548249 L3.48555091,2.84635451 L3.48555091,5.7227384 L4.75869872,5.72243216 C5.35422207,5.72243216 5.82649658,5.58706192 6.18035483,5.3196607 C6.52427516,5.05976938 6.69250914,4.72408924 6.69250914,4.29863022 C6.69250914,3.8561137 6.53818865,3.51019694 6.22619705,3.24794294 C5.94792248,3.01403082 5.58573872,2.88133112 5.13523831,2.85181107 L4.93674662,2.84548249 Z" id="形状结合"></path>
                    </g>
                </g>
            </g>
        </g>
    </g>
</svg>