<svg t="1607323616835" class="icon" viewBox="0 0 1024 1024" version="1.1" xmlns="http://www.w3.org/2000/svg" width="200" height="200"><path d="M512 128a384 384 0 1 0 0 768 384 384 0 0 0 0-768z m0 85.333333a298.666667 298.666667 0 1 1 0 597.333334 298.666667 298.666667 0 0 1 0-597.333334z"></path><path d="M505.6 597.333333c11.776 0 21.888 3.84 29.098667 11.093334 8.149333 7.424 12.288 17.493333 12.288 29.226666a40.746667 40.746667 0 0 1-12.672 29.653334 41.6 41.6 0 0 1-28.714667 11.093333 39.978667 39.978667 0 0 1-29.141333-11.946667 39.765333 39.765333 0 0 1-11.861334-28.8c0-11.733333 4.138667-21.802667 11.861334-28.8a39.850667 39.850667 0 0 1 29.141333-11.52z m6.101333-256c27.349333 0 50.005333 7.722667 67.157334 23.210667 18.005333 15.616 27.008 37.205333 27.008 63.744 0 21.12-5.632 39.253333-17.152 54.186667-3.925333 4.864-14.634667 14.848-33.450667 31.36a46.506667 46.506667 0 0 0-12.8 15.957333 36.053333 36.053333 0 0 0-4.138667 13.568l-0.256 5.248v19.2h-65.92v-19.2c0-16.64 2.944-30.634667 8.746667-41.386667 5.12-10.837333 17.493333-25.088 36.992-43.093333l7.594667-6.912 5.845333-6.485333c5.376-6.954667 7.893333-13.482667 7.893333-19.797334 0-9.813333-2.56-16.981333-7.253333-21.973333-4.906667-4.992-12.288-7.594667-22.912-7.594667-13.184 0-21.461333 3.669333-26.666667 11.093334-4.096 5.546667-6.656 13.568-7.424 24.234666l-0.213333 6.741334v12.8H409.6v-12.8c0-30.72 9.088-55.68 27.392-74.069334 18.389333-18.773333 43.52-28.032 74.666667-28.032z"></path></svg>