<?xml version="1.0" standalone="no"?><!DOCTYPE svg PUBLIC "-//W3C//DTD SVG 1.1//EN" "http://www.w3.org/Graphics/SVG/1.1/DTD/svg11.dtd"><svg t="1601188242428" class="icon" viewBox="0 0 1024 1024" version="1.1" xmlns="http://www.w3.org/2000/svg" xmlns:xlink="http://www.w3.org/1999/xlink" width="20" height="20"><defs><style type="text/css"></style></defs><path d="M661.3504 576a192 192 0 0 1 191.6928 181.76l0.3072 10.24v74.6496H768V768c0-56.32-43.6736-102.5024-99.072-106.3936l-7.5776-0.256H362.6496c-56.32 0-102.4512 43.6736-106.3936 99.0208L256 768v74.6496H170.6496V768a192 192 0 0 1 181.8112-191.744l10.24-0.256h298.6496zM512 128a192 192 0 1 1 0 384 192 192 0 0 1 0-384z m0 85.3504a106.6496 106.6496 0 1 0 0 213.2992 106.6496 106.6496 0 0 0 0-213.2992z" fill="#999999"></path></svg>